<svg width="140" height="41" viewBox="0 0 140 41" fill="none" xmlns="http://www.w3.org/2000/svg">
<path d="M135.019 41H4.90415C2.20059 41 0 38.8188 0 36.1487V4.84415C0 2.173 2.20059 0 4.90415 0H135.019C137.722 0 140 2.173 140 4.84415V36.1487C140 38.8188 137.722 41 135.019 41Z" fill="#A6A6A6"/>
<path d="M138.767 35.8506C138.767 38.0196 136.988 39.7765 134.789 39.7765H4.60058C2.40188 39.7765 0.617188 38.0196 0.617188 35.8506V4.54328C0.617188 2.37535 2.40188 0.612305 4.60058 0.612305H134.788C136.988 0.612305 138.766 2.37535 138.766 4.54328L138.767 35.8506Z" fill="black"/>
<path d="M31.0361 20.2478C31.006 16.9443 33.769 15.3371 33.8953 15.2622C32.3306 13.0042 29.9052 12.6956 29.0529 12.671C27.0159 12.4589 25.04 13.8775 24.0024 13.8775C22.944 13.8775 21.3461 12.6915 19.6239 12.7264C17.4077 12.7602 15.3345 14.0302 14.1974 16.0023C11.8508 20.0234 13.6009 25.9325 15.8492 29.1828C16.9738 30.7746 18.288 32.5519 20.0081 32.4894C21.6909 32.4207 22.3195 31.4275 24.3503 31.4275C26.3625 31.4275 26.9527 32.4894 28.707 32.4494C30.5131 32.4207 31.6502 30.8504 32.7355 29.2443C34.0351 27.4198 34.5571 25.6229 34.5778 25.5307C34.5353 25.5163 31.0702 24.2074 31.0361 20.2478Z" fill="white"/>
<path d="M27.7222 10.533C28.6274 9.4127 29.2466 7.88852 29.0747 6.3418C27.7647 6.3992 26.1264 7.23867 25.183 8.3344C24.3483 9.29995 23.6027 10.8825 23.7953 12.3708C25.2669 12.4795 26.7778 11.6359 27.7222 10.533Z" fill="white"/>
<path fill-rule="evenodd" clip-rule="evenodd" d="M53.1385 32.4324H55.5071L51.017 18.9697H48.2573L43.7891 32.4324H46.0951L47.3311 28.478H51.841L53.1385 32.4324ZM50.2765 23.3037L51.4499 26.8191H47.7233L48.8758 23.3037C49.1782 22.1859 49.3983 21.3402 49.535 20.7676H49.5767C49.9198 22.0989 50.1524 22.9446 50.2765 23.3037Z" fill="white"/>
<path fill-rule="evenodd" clip-rule="evenodd" d="M65.8115 31.0135C66.7534 30.0408 67.2243 28.7158 67.2243 27.0395C67.2243 25.5389 66.8206 24.329 66.0112 23.4087C65.2039 22.4894 64.1948 22.0303 62.9861 22.0303C61.4398 22.0303 60.2876 22.6178 59.5284 23.7949H59.4857L59.3586 22.2326H57.3564C57.412 23.3419 57.4408 24.4235 57.4408 25.4773V36.1049H59.7174V30.9128H59.7601C60.3506 31.8454 61.3202 32.3117 62.67 32.3117C63.9204 32.3117 64.968 31.8793 65.8115 31.0135ZM64.2301 24.7462C64.6807 25.3686 64.905 26.1595 64.905 27.1188C64.905 28.1603 64.6658 28.9984 64.1874 29.6342C63.7101 30.269 63.0427 30.5874 62.1852 30.5874C61.4548 30.5874 60.8611 30.3409 60.4041 29.8468C59.947 29.3528 59.7185 28.7478 59.7185 28.0309V26.3875C59.7185 26.2129 59.7537 25.991 59.8242 25.7199C59.9641 25.1385 60.2631 24.6691 60.7201 24.3096C61.1761 23.9532 61.6865 23.7725 62.2482 23.7725C63.0768 23.7725 63.7378 24.097 64.2301 24.7462Z" fill="white"/>
<path fill-rule="evenodd" clip-rule="evenodd" d="M76.9119 31.0135C77.8549 30.0408 78.3258 28.7158 78.3258 27.0395C78.3258 25.5389 77.9211 24.329 77.1148 23.4087C76.3053 22.4894 75.2961 22.0303 74.0882 22.0303C72.5408 22.0303 71.3885 22.6178 70.6302 23.7949H70.5875L70.4604 22.2326H68.458C68.5135 23.3419 68.5424 24.4235 68.5424 25.4773V36.1049H70.8192V30.9128H70.862C71.4515 31.8454 72.4212 32.3117 73.771 32.3117C75.0216 32.3117 76.0693 31.8793 76.9119 31.0135ZM75.3302 24.7462C75.7809 25.3686 76.0062 26.1595 76.0062 27.1188C76.0062 28.1603 75.767 28.9984 75.2886 29.6342C74.8112 30.269 74.1437 30.5874 73.2862 30.5874C72.5536 30.5874 71.9598 30.3399 71.5027 29.8468C71.0478 29.3528 70.8192 28.7478 70.8192 28.0309V26.3875C70.8192 26.2129 70.8555 25.991 70.9249 25.7199C71.0648 25.1385 71.3628 24.6691 71.8199 24.3096C72.277 23.9532 72.7864 23.7725 73.3492 23.7725C74.179 23.7725 74.8379 24.097 75.3302 24.7462Z" fill="white"/>
<path d="M91.2779 28.3966C91.2779 29.5595 90.8669 30.5057 90.0417 31.2362C89.135 32.0344 87.8727 32.433 86.2506 32.433C84.753 32.433 83.5524 32.1495 82.6436 31.5814L83.1602 29.7558C84.1391 30.3372 85.2132 30.629 86.3834 30.629C87.2232 30.629 87.8769 30.442 88.3465 30.0701C88.8139 29.6982 89.0472 29.1989 89.0472 28.5764C89.0472 28.0216 88.8547 27.5542 88.4688 27.1751C88.085 26.796 87.4439 26.4436 86.5487 26.1179C84.1119 25.2252 82.8946 23.9174 82.8946 22.1976C82.8946 21.0737 83.3213 20.1521 84.1757 19.4351C85.027 18.7169 86.1628 18.3584 87.583 18.3584C88.8495 18.3584 89.9016 18.5752 90.7414 19.0077L90.184 20.7932C89.3996 20.374 88.5127 20.1645 87.5203 20.1645C86.7359 20.1645 86.123 20.3545 85.6838 20.7326C85.3125 21.0706 85.1264 21.4826 85.1264 21.9705C85.1264 22.5109 85.3387 22.9578 85.7654 23.3092C86.1366 23.6338 86.8112 23.9852 87.7901 24.3643C88.9876 24.8379 89.8671 25.3916 90.4329 26.0265C90.9966 26.6593 91.2779 27.4514 91.2779 28.3966Z" fill="white"/>
<path d="M98.0619 24.2036H95.5819V28.884C95.5819 30.0744 96.0188 30.6691 96.8947 30.6691C97.2968 30.6691 97.6303 30.6359 97.8941 30.5696L97.9564 32.1961C97.5132 32.3538 96.9296 32.4331 96.2066 32.4331C95.3181 32.4331 94.6236 32.175 94.1224 31.6596C93.6232 31.1433 93.372 30.2773 93.372 29.0608V24.2016H91.8945V22.5943H93.372V20.8292L95.5819 20.1943V22.5943H98.0619V24.2036Z" fill="white"/>
<path fill-rule="evenodd" clip-rule="evenodd" d="M107.836 30.9147C108.72 29.9305 109.163 28.6718 109.163 27.1387C109.163 25.6473 108.734 24.4302 107.876 23.4875C106.978 22.5157 105.788 22.0303 104.31 22.0303C102.776 22.0303 101.556 22.5229 100.652 23.5082C99.7464 24.4925 99.2949 25.7585 99.2949 27.304C99.2949 28.7809 99.7338 30.0063 100.611 30.9771C101.489 31.9479 102.666 32.4333 104.144 32.4333C105.678 32.4333 106.909 31.9281 107.836 30.9147ZM106.24 24.8436C106.642 25.5015 106.84 26.2904 106.84 27.2102C106.84 28.129 106.633 28.9262 106.22 29.5966C105.736 30.4052 105.065 30.8106 104.21 30.8106C103.338 30.8106 102.662 30.4135 102.178 29.6174C101.776 28.9605 101.577 28.1716 101.577 27.2518C101.577 26.3039 101.776 25.5025 102.178 24.8436C102.647 24.0485 103.331 23.6504 104.23 23.6504C105.1 23.6504 105.771 24.0474 106.24 24.8436Z" fill="white"/>
<path d="M116.564 24.7132C116.336 24.6742 116.093 24.6542 115.838 24.6542C115.027 24.6542 114.4 24.9371 113.959 25.504C113.575 26.0039 113.382 26.6358 113.382 27.3987V32.4326H111.079L111.1 25.86C111.1 24.7542 111.071 23.7474 111.014 22.8396H113.021L113.106 24.6752H113.169C113.413 24.0443 113.797 23.5364 114.322 23.1555C114.836 22.8126 115.39 22.6416 115.988 22.6416C116.201 22.6416 116.394 22.6556 116.564 22.6806V24.7132Z" fill="white"/>
<path fill-rule="evenodd" clip-rule="evenodd" d="M126.352 27.7853C126.406 27.5114 126.431 27.176 126.431 26.7782C126.431 25.5316 126.145 24.4818 125.575 23.6331C124.855 22.5645 123.795 22.0303 122.395 22.0303C120.969 22.0303 119.836 22.5645 118.998 23.6331C118.197 24.6339 117.797 25.8888 117.797 27.3958C117.797 28.9309 118.227 30.1546 119.086 31.0658C119.946 31.9771 121.129 32.4333 122.635 32.4333C123.888 32.4333 124.973 32.2281 125.893 31.8157L125.554 30.2743C124.768 30.5899 123.893 30.7472 122.934 30.7472C122.067 30.7472 121.362 30.5139 120.816 30.0484C120.215 29.5276 119.902 28.7726 119.876 27.7853H126.352ZM123.954 24.4952C124.246 24.9753 124.387 25.5439 124.373 26.2021V26.2011H119.876C119.942 25.5304 120.156 24.9545 120.515 24.4744C120.954 23.8703 121.528 23.5693 122.233 23.5693C123.006 23.5693 123.58 23.8776 123.954 24.4952Z" fill="white"/>
<path d="M44.5853 7.82719C44.8176 7.69163 45.0794 7.578 45.3741 7.4843C45.6677 7.3906 46.0135 7.34375 46.4114 7.34375C47.0529 7.34375 47.5582 7.49227 47.9286 7.78832C48.2989 8.08437 48.4841 8.48408 48.4841 8.98746C48.4841 9.38718 48.3603 9.7221 48.1127 9.99323C47.8652 10.2644 47.548 10.4448 47.1644 10.5345V10.5634C47.3761 10.5963 47.5767 10.6521 47.7649 10.7328C47.9542 10.8136 48.1199 10.9212 48.2611 11.0568C48.4033 11.1924 48.5158 11.3499 48.5987 11.5313C48.6805 11.7117 48.7225 11.9111 48.7225 12.1313C48.7225 12.4922 48.6478 12.7952 48.4984 13.0404C48.349 13.2856 48.1547 13.485 47.9132 13.6405C47.6728 13.795 47.4027 13.9066 47.105 13.9734C46.8073 14.0402 46.5096 14.0751 46.2119 14.0751C45.8938 14.0751 45.5797 14.0422 45.2687 13.9784C44.9577 13.9146 44.6702 13.808 44.4053 13.6594L44.6733 12.857C44.8452 12.9407 45.0672 13.0215 45.3383 13.0992C45.6094 13.177 45.8835 13.2149 46.1618 13.2149C46.6181 13.2149 46.971 13.1152 47.2186 12.9158C47.4662 12.7155 47.591 12.4483 47.591 12.1134C47.591 11.8871 47.5409 11.7027 47.4416 11.5572C47.3414 11.4117 47.2125 11.298 47.0539 11.2133C46.8953 11.1296 46.7183 11.0718 46.5229 11.0399C46.3275 11.008 46.1342 10.991 45.9429 10.991H45.4958V10.1966H45.9429C46.1475 10.1966 46.3378 10.1717 46.5137 10.1188C46.6887 10.068 46.8411 9.99522 46.97 9.90152C47.0989 9.80782 47.2002 9.69618 47.2728 9.5676C47.3444 9.43901 47.3813 9.29348 47.3813 9.132C47.3813 8.84193 47.2749 8.61466 47.0631 8.45019C46.8513 8.28572 46.5669 8.20299 46.2099 8.20299C45.9654 8.20299 45.7199 8.24186 45.4754 8.31861C45.2309 8.39636 45.0119 8.48009 44.8196 8.56981L44.5853 7.82719Z" fill="white"/>
<path fill-rule="evenodd" clip-rule="evenodd" d="M53.2984 13.4271L53.372 13.9677V13.9687H54.2727C54.2297 13.7049 54.2077 13.3315 54.2077 12.8486V11.1202C54.2077 9.82587 53.6177 9.17871 52.4387 9.17871C51.822 9.17871 51.3066 9.31412 50.8926 9.58393L51.0963 10.2689C51.4347 10.0379 51.8268 9.92145 52.2714 9.92145C52.8948 9.92145 53.2066 10.2301 53.2066 10.8484V10.935C52.3651 10.935 51.7168 11.0814 51.2588 11.3741C50.8008 11.6668 50.5723 12.1069 50.5723 12.6923C50.5723 12.8914 50.6057 13.0756 50.6736 13.2429C50.7425 13.4111 50.8371 13.5555 50.9614 13.678C51.0848 13.8004 51.2301 13.897 51.3975 13.9677C51.5648 14.0384 51.7493 14.0742 51.954 14.0742C52.5296 14.0742 52.9685 13.8582 53.2706 13.4271H53.2984ZM51.9837 11.8529C52.2572 11.7045 52.6741 11.6309 53.2334 11.6309V12.3547C53.2334 12.4901 53.2067 12.6165 53.1512 12.736C53.0948 12.8555 53.0231 12.957 52.9332 13.0407C52.8443 13.1243 52.7419 13.191 52.6253 13.2388C52.5077 13.2876 52.3853 13.3115 52.2562 13.3115C52.0592 13.3115 51.8957 13.2508 51.7666 13.1283C51.6376 13.0058 51.5735 12.8226 51.5735 12.5777C51.5735 12.2432 51.7102 12.0012 51.9837 11.8529Z" fill="white"/>
<path d="M59.8239 9.17871V10.0749H57.8139V14.0742H56.7402V9.17871H59.8239Z" fill="white"/>
<path fill-rule="evenodd" clip-rule="evenodd" d="M65.8231 12.6029C65.935 12.2929 65.9915 11.95 65.9915 11.5751C65.9915 11.2192 65.9372 10.8943 65.8285 10.5994C65.7198 10.3044 65.571 10.0525 65.3808 9.84255C65.1906 9.6326 64.9678 9.46964 64.7113 9.35267C64.4548 9.2367 64.1745 9.17871 63.8734 9.17871C63.0997 9.17871 62.5237 9.46064 62.1444 10.0225H62.1226L62.0585 9.27569H61.0576C61.0707 9.54762 61.0815 9.81156 61.088 10.0665C61.0957 10.3224 61.0989 10.5764 61.0989 10.8283V15.9101H62.2378V13.4277H62.2596C62.5552 13.8736 63.0399 14.0965 63.7148 14.0965C64.0527 14.0965 64.3592 14.0345 64.6374 13.9115C64.9146 13.7896 65.1536 13.6176 65.3536 13.3977C65.5547 13.1787 65.7101 12.9138 65.8231 12.6029ZM64.7429 10.9694C64.8027 11.1664 64.8331 11.3813 64.8331 11.6143C64.8331 12.1181 64.7114 12.522 64.4723 12.823C64.2332 13.1239 63.8996 13.2738 63.4703 13.2738C63.2877 13.2738 63.1215 13.2439 62.9704 13.1819C62.8193 13.1209 62.6889 13.0349 62.5802 12.9249C62.4716 12.815 62.3879 12.686 62.3281 12.537C62.2673 12.3881 62.2379 12.2261 62.2379 12.0521V11.2663C62.2379 11.0914 62.2738 10.9264 62.3444 10.7715C62.4151 10.6165 62.5074 10.4835 62.6237 10.3736C62.7389 10.2636 62.8737 10.1756 63.0291 10.1116C63.1845 10.0476 63.3432 10.0146 63.504 10.0146C63.7083 10.0146 63.8931 10.0546 64.0582 10.1356C64.2234 10.2166 64.3647 10.3266 64.4799 10.4655C64.5951 10.6045 64.6831 10.7725 64.7429 10.9694Z" fill="white"/>
<path d="M71.5413 9.17871L70.2386 12.392C69.9287 13.1548 69.6265 13.779 69.3341 14.2656C69.0406 14.7521 68.7612 15.106 68.4928 15.3291C68.0979 15.6466 67.6778 15.8412 67.2326 15.9101L66.9577 15.0431C67.2533 14.9733 67.5359 14.8367 67.8044 14.6332C68.0717 14.4297 68.2866 14.1761 68.4503 13.8704C68.507 13.7692 68.5343 13.6994 68.5343 13.661C68.5343 13.6227 68.5125 13.55 68.471 13.4418L66.6074 9.17969H67.8665L68.8409 11.7639C68.8911 11.8848 68.9402 12.0214 68.9893 12.1738C69.0395 12.3262 69.0918 12.4952 69.1486 12.679H69.1704C69.2053 12.5768 69.2446 12.449 69.2861 12.2927C69.3286 12.1374 69.3853 11.9576 69.4552 11.7541L70.3237 9.17969H71.5413V9.17871Z" fill="white"/>
<path d="M73.6019 11.2253H74.0754C74.4226 11.2253 74.6926 11.1616 74.8814 11.0322C75.0702 10.9028 75.1661 10.7455 75.1661 10.5584C75.1661 10.3653 75.0858 10.211 74.9235 10.0955C74.763 9.98003 74.539 9.9213 74.2544 9.9213C74.0705 9.9213 73.8856 9.95216 73.7007 10.0129C73.5139 10.0746 73.3418 10.1503 73.1833 10.2398L72.9182 9.56494C73.1833 9.41761 73.4474 9.31608 73.7115 9.26133C73.9737 9.20658 74.2368 9.17871 74.5028 9.17871C74.7132 9.17871 74.9235 9.19961 75.1348 9.24142C75.3451 9.28323 75.5338 9.35391 75.6982 9.45345C75.8625 9.55299 75.9985 9.68339 76.1012 9.84465C76.2059 10.0059 76.2577 10.205 76.2577 10.4439C76.2577 10.5922 76.2293 10.7226 76.1716 10.8351C76.1159 10.9476 76.0396 11.0471 75.9447 11.1337C75.8508 11.2203 75.7442 11.292 75.6278 11.3458C75.5113 11.4005 75.391 11.4413 75.2727 11.4672V11.4961C75.4233 11.516 75.571 11.5548 75.7138 11.6125C75.8557 11.6703 75.9828 11.7459 76.0983 11.8395C76.2107 11.9331 76.3027 12.0455 76.3731 12.1769C76.4416 12.3093 76.4758 12.4587 76.4758 12.6259C76.4758 12.9026 76.4113 13.1345 76.2773 13.3207C76.1452 13.5078 75.975 13.6552 75.7686 13.7647C75.5642 13.8742 75.3372 13.9528 75.0907 14.0016C74.8442 14.0493 74.6036 14.0742 74.3708 14.0742C74.0861 14.0742 73.8035 14.0434 73.5266 13.9827C73.2478 13.9209 72.9974 13.8264 72.7754 13.698L73.0424 13.0121C73.2068 13.1027 73.3936 13.1783 73.6059 13.2391C73.8181 13.2998 74.0343 13.3306 74.2554 13.3306C74.6026 13.3306 74.8706 13.262 75.0575 13.1236C75.2424 12.9852 75.3363 12.813 75.3363 12.607C75.3363 12.4716 75.3059 12.3581 75.2424 12.2645C75.1788 12.171 75.0898 12.0953 74.9773 12.0376C74.8628 11.9798 74.7308 11.939 74.5782 11.9171C74.4275 11.8942 74.2612 11.8833 74.0852 11.8833H73.6019V11.2253Z" fill="white"/>
<path d="M79.3533 9.18079V10.9126C79.3533 11.3093 79.3471 11.6654 79.3327 11.98C79.3183 12.2956 79.3029 12.6279 79.2823 12.9768L79.3029 12.9965C79.4294 12.7411 79.5538 12.4919 79.6761 12.2458C79.8005 12.0008 79.9249 11.7505 80.0514 11.4951L81.2482 9.17871H82.6434V14.0732H81.6255V12.3413C81.6255 11.979 81.6358 11.6166 81.6512 11.2542C81.6676 10.8908 81.6851 10.5254 81.7057 10.1557H81.6553C81.5432 10.4579 81.4301 10.7195 81.316 10.9417C81.2039 11.1629 81.0909 11.3913 80.9788 11.627C80.7721 12.0298 80.5675 12.4327 80.364 12.8356C80.1614 13.2384 79.9465 13.6517 79.7214 14.0742H78.3262V9.18079H79.3533Z" fill="white"/>
<path d="M88.1941 9.17871V10.0749H86.602V14.0742H85.4591V10.0749H83.877V9.17871H88.1941Z" fill="white"/>
<path fill-rule="evenodd" clip-rule="evenodd" d="M93.7346 11.6694C93.7408 11.5886 93.7449 11.5028 93.7449 11.413C93.7449 11.0779 93.6985 10.7726 93.6038 10.4993C93.511 10.226 93.376 9.98964 93.1988 9.79314C93.0237 9.59565 92.8104 9.44403 92.561 9.3383C92.3086 9.23158 92.0314 9.17871 91.7254 9.17871C91.3792 9.17871 91.0629 9.24355 90.7796 9.37222C90.4983 9.50189 90.2561 9.67844 90.0552 9.90486C89.8564 10.1303 89.7008 10.3966 89.5905 10.7028C89.4823 11.009 89.4277 11.3432 89.4277 11.7043C89.4277 12.0654 89.4823 12.3905 89.5905 12.6808C89.7008 12.971 89.8605 13.2194 90.0655 13.4259C90.2726 13.6324 90.5261 13.792 90.8259 13.9047C91.1258 14.0174 91.4658 14.0742 91.8439 14.0742C92.4714 14.0742 93.0134 13.9775 93.4739 13.784L93.305 13.0578C92.9052 13.2064 92.4683 13.2803 91.9954 13.2803C91.543 13.2803 91.1773 13.1586 90.9011 12.9172C90.625 12.6758 90.4808 12.3317 90.4663 11.8868H93.7047C93.7181 11.823 93.7284 11.7502 93.7346 11.6694ZM92.4404 10.2484C92.6238 10.4768 92.7145 10.7751 92.7145 11.1431H90.4673C90.5013 10.7811 90.628 10.4848 90.8475 10.2524C91.067 10.02 91.3318 9.9043 91.646 9.9043C91.9922 9.9043 92.257 10.02 92.4404 10.2484Z" fill="white"/>
<path fill-rule="evenodd" clip-rule="evenodd" d="M98.0615 9.28692C98.2666 9.25456 98.5263 9.22826 98.8438 9.20804C99.1613 9.18781 99.4853 9.17871 99.8181 9.17871C100.029 9.17871 100.268 9.19085 100.532 9.21309C100.796 9.23534 101.05 9.28793 101.288 9.36984C101.529 9.45175 101.728 9.57411 101.891 9.73794C102.054 9.90176 102.136 10.1232 102.136 10.4044C102.136 10.549 102.107 10.6784 102.051 10.7917C101.994 10.9059 101.919 11.0061 101.823 11.091C101.727 11.176 101.618 11.2467 101.495 11.3014C101.372 11.357 101.244 11.3984 101.109 11.4237L101.12 11.453C101.493 11.5117 101.797 11.6361 102.03 11.8262C102.262 12.0163 102.379 12.2772 102.379 12.6109C102.379 12.9447 102.278 13.2096 102.083 13.4058C101.884 13.602 101.642 13.7496 101.352 13.8477C101.062 13.9458 100.757 14.0085 100.436 14.0348C100.116 14.0601 99.8279 14.0742 99.5748 14.0742C99.2911 14.0742 99.014 14.0682 98.7434 14.054C98.4707 14.0409 98.2448 14.0277 98.0615 14.0146V9.28692ZM99.1613 11.1908H99.7428C99.9195 11.1908 100.088 11.1797 100.246 11.1565C100.405 11.1342 100.544 11.0978 100.664 11.0493C100.785 10.9997 100.876 10.935 100.945 10.8531C101.012 10.7712 101.045 10.6721 101.045 10.5537C101.045 10.3383 100.949 10.1796 100.753 10.0784C100.559 9.97732 100.254 9.92676 99.8388 9.92676C99.7199 9.92676 99.6151 9.92979 99.5257 9.93687C99.4384 9.94294 99.3173 9.95305 99.1613 9.9662V11.1908ZM99.5147 13.3281C99.4209 13.3211 99.302 13.312 99.1613 13.2988V11.876H99.7646C100.211 11.876 100.562 11.9276 100.824 12.0317C101.084 12.1359 101.216 12.324 101.216 12.597C101.216 12.7527 101.173 12.8781 101.092 12.9722C101.012 13.0672 100.905 13.1421 100.771 13.1967C100.636 13.2523 100.487 13.2897 100.325 13.3089C100.163 13.3292 100.006 13.3383 99.8497 13.3383C99.721 13.3383 99.6108 13.3352 99.5147 13.3281Z" fill="white"/>
</svg>
