<svg width="140" height="41" viewBox="0 0 140 41" fill="none" xmlns="http://www.w3.org/2000/svg">
<path d="M139.222 36.2716C139.222 38.4565 137.44 40.2264 135.235 40.2264H4.76923C2.56584 40.2264 0.777344 38.4565 0.777344 36.2716V4.73351C0.777344 2.5496 2.56584 0.77356 4.76923 0.77356H135.234C137.44 0.77356 139.221 2.5496 139.221 4.73351L139.222 36.2716Z" fill="black"/>
<path d="M134.815 0.82128C137.216 0.82128 139.169 2.75212 139.169 5.125V35.875C139.169 38.2479 137.216 40.1787 134.815 40.1787H5.18518C2.78444 40.1787 0.830926 38.2479 0.830926 35.875V5.125C0.830926 2.75212 2.78444 0.82128 5.18518 0.82128H134.815ZM134.815 -1.95259e-07H5.18518C2.33463 -1.95259e-07 0 2.30753 0 5.125V35.875C0 38.6925 2.33463 41 5.18518 41H134.815C137.665 41 140 38.6925 140 35.875V5.125C140 2.30753 137.665 -1.95259e-07 134.815 -1.95259e-07Z" fill="#A6A6A6"/>
<path d="M31.2458 20.2786C31.2157 16.975 33.9825 15.3678 34.109 15.293C32.542 13.0349 30.1133 12.7264 29.2598 12.7018C27.22 12.4896 25.2413 13.9082 24.2022 13.9082C23.1423 13.9082 21.5422 12.7223 19.8176 12.7572C17.5983 12.791 15.5222 14.061 14.3835 16.0331C12.0336 20.0541 13.7862 25.9633 16.0376 29.2135C17.1638 30.8054 18.4798 32.5827 20.2023 32.5202C21.8875 32.4515 22.517 31.4583 24.5506 31.4583C26.5656 31.4583 27.1567 32.5202 28.9135 32.4802C30.722 32.4515 31.8607 30.8812 32.9475 29.275C34.249 27.4505 34.7717 25.6537 34.7924 25.5615C34.7499 25.5471 31.28 24.2382 31.2458 20.2786Z" fill="white"/>
<path d="M27.9272 10.5637C28.8336 9.44334 29.4538 7.91916 29.2816 6.37244C27.9698 6.42984 26.3292 7.26931 25.3844 8.36504C24.5486 9.33059 23.8019 10.9132 23.9948 12.4015C25.4684 12.5101 26.9815 11.6666 27.9272 10.5637Z" fill="white"/>
<path d="M55.6316 32.2915H53.2765L51.9864 28.2847H47.5022L46.2734 32.2915H43.9805L48.4231 18.6508H51.1671L55.6316 32.2915ZM51.5975 26.6037L50.4308 23.0419C50.3074 22.678 50.0762 21.8211 49.735 20.4722H49.6935C49.5577 21.0523 49.3388 21.9092 49.0381 23.0419L47.8922 26.6037H51.5975V26.6037Z" fill="white"/>
<path d="M67.0559 27.2527C67.0559 28.9255 66.5986 30.2478 65.6839 31.2184C64.8647 32.0825 63.8473 32.514 62.633 32.514C61.3221 32.514 60.3805 32.0487 59.807 31.118H59.7655V36.2994H57.5546V25.6937C57.5546 24.642 57.5266 23.5627 57.4727 22.4557H59.4171L59.5405 24.0147H59.582C60.3193 22.8401 61.4383 22.2538 62.9399 22.2538C64.1138 22.2538 65.0938 22.712 65.8778 23.6293C66.6639 24.5477 67.0559 25.7552 67.0559 27.2527ZM64.8035 27.3327C64.8035 26.3753 64.5857 25.5861 64.1481 24.9649C63.67 24.3171 63.0281 23.9932 62.2233 23.9932C61.6778 23.9932 61.1821 24.1736 60.7393 24.5293C60.2955 24.888 60.0051 25.3565 59.8692 25.9366C59.8008 26.2072 59.7666 26.4286 59.7666 26.6029V28.2429C59.7666 28.9583 59.9885 29.562 60.4324 30.0551C60.8762 30.5481 61.4528 30.7941 62.1621 30.7941C62.9949 30.7941 63.643 30.4763 64.1066 29.8429C64.5712 29.2084 64.8035 28.372 64.8035 27.3327Z" fill="white"/>
<path d="M78.5021 27.2527C78.5021 28.9255 78.0448 30.2478 77.1291 31.2184C76.3109 32.0825 75.2936 32.514 74.0792 32.514C72.7684 32.514 71.8267 32.0487 71.2543 31.118H71.2128V36.2994H69.0019V25.6937C69.0019 24.642 68.9738 23.5627 68.9199 22.4557H70.8644L70.9878 24.0147H71.0293C71.7655 22.8401 72.8845 22.2538 74.3872 22.2538C75.5601 22.2538 76.5401 22.712 77.3261 23.6293C78.1091 24.5477 78.5021 25.7552 78.5021 27.2527ZM76.2497 27.3327C76.2497 26.3753 76.0309 25.5861 75.5933 24.9649C75.1152 24.3171 74.4753 23.9932 73.6696 23.9932C73.123 23.9932 72.6284 24.1736 72.1845 24.5293C71.7407 24.888 71.4513 25.3565 71.3155 25.9366C71.2481 26.2072 71.2128 26.4286 71.2128 26.6029V28.2429C71.2128 28.9583 71.4347 29.562 71.8765 30.0551C72.3204 30.5471 72.897 30.7941 73.6084 30.7941C74.4411 30.7941 75.0893 30.4763 75.5528 29.8429C76.0174 29.2084 76.2497 28.372 76.2497 27.3327Z" fill="white"/>
<path d="M91.2981 28.4662C91.2981 29.6265 90.8906 30.5705 90.0723 31.2993C89.1732 32.0957 87.9215 32.4934 86.3131 32.4934C84.828 32.4934 83.6375 32.2105 82.7363 31.6437L83.2486 29.8223C84.2193 30.4024 85.2843 30.6935 86.4448 30.6935C87.2775 30.6935 87.9257 30.507 88.3913 30.1359C88.8548 29.7649 89.0861 29.2667 89.0861 28.6456C89.0861 28.0921 88.8953 27.6257 88.5126 27.2475C88.132 26.8693 87.4963 26.5177 86.6086 26.1928C84.1923 25.302 82.9852 23.9972 82.9852 22.2814C82.9852 21.16 83.4083 20.2406 84.2556 19.5251C85.0997 18.8087 86.226 18.4509 87.6343 18.4509C88.8901 18.4509 89.9334 18.6672 90.7661 19.0987L90.2134 20.8802C89.4356 20.462 88.5562 20.2529 87.572 20.2529C86.7943 20.2529 86.1866 20.4425 85.751 20.8197C85.3829 21.1569 85.1983 21.568 85.1983 22.0548C85.1983 22.594 85.4088 23.0399 85.8319 23.3904C86.2 23.7143 86.8689 24.0649 87.8396 24.4431C89.027 24.9156 89.8991 25.4681 90.4602 26.1015C91.0191 26.7329 91.2981 27.5232 91.2981 28.4662Z" fill="white"/>
<path d="M98.6093 24.0957H96.1722V28.8711C96.1722 30.0858 96.6016 30.6926 97.4623 30.6926C97.8574 30.6926 98.1851 30.6587 98.4444 30.5911L98.5056 32.2506C98.07 32.4115 97.4965 32.4925 96.7862 32.4925C95.913 32.4925 95.2306 32.229 94.738 31.7032C94.2475 31.1764 94.0007 30.2928 94.0007 29.0515V24.0936H92.5488V22.4536H94.0007V20.6527L96.1722 20.0049V22.4536H98.6093V24.0957Z" fill="white"/>
<path d="M109.605 27.2926C109.605 28.8045 109.167 30.0458 108.294 31.0165C107.378 32.0158 106.163 32.514 104.647 32.514C103.187 32.514 102.025 32.0353 101.158 31.078C100.291 30.1206 99.8574 28.9121 99.8574 27.4556C99.8574 25.9314 100.303 24.683 101.198 23.7123C102.091 22.7406 103.296 22.2548 104.811 22.2548C106.271 22.2548 107.446 22.7334 108.333 23.6918C109.181 24.6215 109.605 25.8218 109.605 27.2926ZM107.311 27.3634C107.311 26.4562 107.115 25.6783 106.717 25.0294C106.254 24.2443 105.591 23.8527 104.733 23.8527C103.844 23.8527 103.169 24.2453 102.705 25.0294C102.308 25.6793 102.112 26.4696 102.112 27.4044C102.112 28.3115 102.308 29.0895 102.705 29.7373C103.183 30.5224 103.851 30.914 104.713 30.914C105.557 30.914 106.22 30.5142 106.698 29.7168C107.105 29.0556 107.311 28.2695 107.311 27.3634Z" fill="white"/>
<path d="M116.793 24.3776C116.574 24.3376 116.341 24.3171 116.096 24.3171C115.318 24.3171 114.717 24.6072 114.294 25.1884C113.926 25.7009 113.741 26.3487 113.741 27.1307V32.2916H111.531L111.552 25.5533C111.552 24.4196 111.524 23.3874 111.469 22.4567H113.395L113.475 24.3386H113.537C113.77 23.6919 114.138 23.1712 114.642 22.7806C115.135 22.4291 115.667 22.2538 116.24 22.2538C116.444 22.2538 116.629 22.2681 116.793 22.2938V24.3776Z" fill="white"/>
<path d="M126.68 26.9082C126.68 27.2998 126.654 27.6298 126.599 27.8994H119.966C119.992 28.8711 120.312 29.6142 120.928 30.1267C121.487 30.5849 122.21 30.8145 123.098 30.8145C124.08 30.8145 124.976 30.6597 125.782 30.3491L126.128 31.8661C125.186 32.272 124.075 32.474 122.792 32.474C121.249 32.474 120.038 32.025 119.156 31.1281C118.277 30.2313 117.836 29.0269 117.836 27.516C117.836 26.0329 118.246 24.7977 119.066 23.8127C119.925 22.7611 121.085 22.2352 122.545 22.2352C123.979 22.2352 125.065 22.7611 125.802 23.8127C126.386 24.6481 126.68 25.6813 126.68 26.9082ZM124.571 26.3414C124.586 25.6936 124.442 25.1339 124.142 24.6614C123.759 24.0536 123.171 23.7502 122.38 23.7502C121.657 23.7502 121.069 24.0464 120.62 24.6409C120.252 25.1134 120.033 25.6803 119.966 26.3404H124.571V26.3414Z" fill="white"/>
<path d="M46.7649 15.6187C46.2962 15.6187 45.8783 15.5382 45.5114 15.3772C45.1468 15.2163 44.8568 14.9925 44.6413 14.7061C44.4283 14.4173 44.3123 14.0823 44.2933 13.7011H45.1882C45.2071 13.9355 45.2876 14.1379 45.4297 14.3083C45.5717 14.4764 45.7576 14.6066 45.9872 14.699C46.2169 14.7913 46.4714 14.8375 46.7507 14.8375C47.0632 14.8375 47.3402 14.783 47.5817 14.6741C47.8232 14.5652 48.0125 14.4137 48.1499 14.2196C48.2872 14.0254 48.3558 13.8005 48.3558 13.5449C48.3558 13.2773 48.2895 13.0418 48.157 12.8382C48.0244 12.6322 47.8303 12.4712 47.5746 12.3552C47.3189 12.2392 47.0064 12.1812 46.6371 12.1812H46.0547V11.4H46.6371C46.9259 11.4 47.1792 11.3479 47.397 11.2437C47.6172 11.1396 47.7888 10.9928 47.9119 10.8034C48.0374 10.614 48.1001 10.3914 48.1001 10.1358C48.1001 9.88955 48.0457 9.6753 47.9368 9.49301C47.8279 9.31072 47.674 9.16867 47.4751 9.06687C47.2786 8.96507 47.0466 8.91417 46.7791 8.91417C46.5282 8.91417 46.2914 8.96034 46.0689 9.05267C45.8487 9.14263 45.6688 9.27402 45.5291 9.44684C45.3894 9.6173 45.3137 9.82326 45.3018 10.0647H44.4496C44.4638 9.68359 44.5786 9.34978 44.794 9.06332C45.0095 8.7745 45.2912 8.54959 45.6392 8.38861C45.9896 8.22762 46.3743 8.14713 46.7933 8.14713C47.2431 8.14713 47.629 8.23827 47.951 8.42057C48.273 8.60049 48.5204 8.83842 48.6932 9.13434C48.866 9.43027 48.9524 9.74987 48.9524 10.0932C48.9524 10.5027 48.8447 10.8519 48.6293 11.1407C48.4162 11.4296 48.1262 11.6296 47.7592 11.7409V11.7977C48.2185 11.8735 48.5772 12.0688 48.8352 12.3836C49.0933 12.6961 49.2223 13.0832 49.2223 13.5449C49.2223 13.9402 49.1146 14.2953 48.8991 14.6102C48.6861 14.9227 48.3949 15.1689 48.0256 15.3488C47.6563 15.5288 47.236 15.6187 46.7649 15.6187ZM52.294 15.6471C51.9484 15.6471 51.6347 15.582 51.353 15.4518C51.0713 15.3192 50.8475 15.1287 50.6818 14.8801C50.5161 14.6291 50.4332 14.3261 50.4332 13.971C50.4332 13.6585 50.4948 13.4052 50.6179 13.211C50.741 13.0146 50.9055 12.8607 51.1115 12.7494C51.3175 12.6381 51.5447 12.5553 51.7933 12.5008C52.0443 12.444 52.2964 12.399 52.5497 12.3659C52.8812 12.3233 53.1499 12.2913 53.3558 12.27C53.5642 12.2463 53.7157 12.2073 53.8104 12.1528C53.9074 12.0984 53.956 12.0037 53.956 11.8687V11.8403C53.956 11.4899 53.8601 11.2177 53.6683 11.0235C53.4789 10.8294 53.1913 10.7324 52.8054 10.7324C52.4053 10.7324 52.0916 10.8199 51.8643 10.9951C51.6371 11.1703 51.4773 11.3574 51.3849 11.5562L50.5895 11.2721C50.7315 10.9407 50.9209 10.6826 51.1577 10.498C51.3968 10.311 51.6572 10.1807 51.9389 10.1074C52.223 10.0316 52.5024 9.99372 52.777 9.99372C52.9522 9.99372 53.1534 10.015 53.3807 10.0576C53.6103 10.0979 53.8317 10.1819 54.0447 10.3098C54.2602 10.4376 54.4389 10.6306 54.581 10.8886C54.723 11.1467 54.794 11.4923 54.794 11.9255V15.5193H53.956V14.7807H53.9134C53.8565 14.899 53.7618 15.0257 53.6293 15.1606C53.4967 15.2956 53.3203 15.4104 53.1001 15.5051C52.88 15.5998 52.6113 15.6471 52.294 15.6471ZM52.4219 14.8943C52.7533 14.8943 53.0327 14.8292 53.2599 14.699C53.4896 14.5688 53.6624 14.4007 53.7784 14.1947C53.8968 13.9887 53.956 13.7721 53.956 13.5449V12.7778C53.9205 12.8204 53.8423 12.8595 53.7216 12.895C53.6032 12.9281 53.4659 12.9577 53.3097 12.9838C53.1558 13.0074 53.0054 13.0288 52.8587 13.0477C52.7143 13.0643 52.5971 13.0785 52.5071 13.0903C52.2893 13.1187 52.0857 13.1649 51.8963 13.2288C51.7093 13.2904 51.5578 13.3839 51.4418 13.5093C51.3281 13.6324 51.2713 13.8005 51.2713 14.0136C51.2713 14.3048 51.379 14.525 51.5945 14.6741C51.8123 14.8209 52.0881 14.8943 52.4219 14.8943ZM59.6902 10.0647V10.846H57.1618V15.5193H56.3237V10.0647H59.6902ZM60.9135 17.5647V10.0647H61.7232V10.9312H61.8226C61.8842 10.8365 61.9694 10.7158 62.0783 10.569C62.1896 10.4199 62.3482 10.2873 62.5542 10.1713C62.7625 10.0529 63.0442 9.99372 63.3993 9.99372C63.8586 9.99372 64.2634 10.1085 64.6138 10.3382C64.9642 10.5678 65.2376 10.8933 65.4341 11.3147C65.6306 11.7361 65.7289 12.2333 65.7289 12.8062C65.7289 13.3839 65.6306 13.8846 65.4341 14.3083C65.2376 14.7298 64.9654 15.0565 64.6174 15.2885C64.2694 15.5181 63.8681 15.6329 63.4135 15.6329C63.0632 15.6329 62.7826 15.5749 62.5719 15.4589C62.3612 15.3405 62.199 15.2068 62.0854 15.0576C61.9718 14.9061 61.8842 14.7807 61.8226 14.6812H61.7516V17.5647H60.9135ZM61.7374 12.792C61.7374 13.2039 61.7978 13.5673 61.9185 13.8822C62.0392 14.1947 62.2156 14.4397 62.4476 14.6173C62.6796 14.7925 62.9637 14.8801 63.2999 14.8801C63.6503 14.8801 63.9426 14.7878 64.177 14.6031C64.4138 14.4161 64.5913 14.1651 64.7097 13.8503C64.8304 13.533 64.8908 13.1803 64.8908 12.792C64.8908 12.4085 64.8316 12.0628 64.7132 11.7551C64.5972 11.4449 64.4209 11.1999 64.1841 11.02C63.9498 10.8377 63.655 10.7466 63.2999 10.7466C62.959 10.7466 62.6725 10.833 62.4405 11.0058C62.2085 11.1762 62.0333 11.4154 61.915 11.7231C61.7966 12.0285 61.7374 12.3848 61.7374 12.792ZM67.3517 17.5647C67.2097 17.5647 67.083 17.5529 66.9718 17.5292C66.8605 17.5079 66.7836 17.4866 66.7409 17.4653L66.954 16.7267C67.1576 16.7788 67.3375 16.7977 67.4938 16.7835C67.65 16.7693 67.7885 16.6994 67.9093 16.574C68.0324 16.4509 68.1448 16.2508 68.2466 15.9738L68.4029 15.5477L66.3858 10.0647H67.2949L68.8006 14.4113H68.8574L70.3631 10.0647H71.2722L68.9569 16.3147C68.8527 16.5965 68.7237 16.8297 68.5698 17.0143C68.4159 17.2013 68.2372 17.3398 68.0336 17.4298C67.8323 17.5198 67.6051 17.5647 67.3517 17.5647ZM72.0375 14.1272H72.9324C72.9513 14.3735 73.0626 14.5605 73.2662 14.6883C73.4721 14.8162 73.7396 14.8801 74.0687 14.8801C74.4049 14.8801 74.6925 14.8114 74.9316 14.6741C75.1708 14.5344 75.2903 14.3095 75.2903 13.9994C75.2903 13.8171 75.2453 13.6585 75.1554 13.5235C75.0654 13.3862 74.9387 13.2797 74.7754 13.2039C74.612 13.1282 74.4191 13.0903 74.1966 13.0903H73.2591V12.3375H74.1966C74.5304 12.3375 74.7766 12.2617 74.9352 12.1102C75.0962 11.9587 75.1767 11.7693 75.1767 11.542C75.1767 11.2982 75.0903 11.1029 74.9174 10.9561C74.7446 10.8069 74.4996 10.7324 74.1824 10.7324C73.8627 10.7324 73.5964 10.8046 73.3833 10.949C73.1703 11.091 73.0578 11.2745 73.046 11.4994H72.1653C72.1748 11.2058 72.2647 10.9466 72.4352 10.7217C72.6056 10.4944 72.8377 10.3169 73.1312 10.189C73.4248 10.0588 73.7609 9.99372 74.1397 9.99372C74.5233 9.99372 74.8559 10.0612 75.1376 10.1961C75.4217 10.3287 75.6407 10.5098 75.7946 10.7395C75.9508 10.9667 76.0289 11.2248 76.0289 11.5136C76.0289 11.8214 75.9425 12.0699 75.7697 12.2593C75.5969 12.4487 75.3803 12.5837 75.1199 12.6642V12.721C75.3258 12.7352 75.5046 12.8015 75.6561 12.9199C75.81 13.0359 75.9295 13.1886 76.0147 13.378C76.1 13.565 76.1426 13.7721 76.1426 13.9994C76.1426 14.3308 76.0538 14.6197 75.8762 14.8659C75.6987 15.1097 75.4548 15.2991 75.1447 15.4341C74.8346 15.5666 74.4806 15.6329 74.0829 15.6329C73.697 15.6329 73.3514 15.5702 73.046 15.4447C72.7406 15.3169 72.4979 15.1405 72.318 14.9156C72.1404 14.6883 72.0469 14.4255 72.0375 14.1272ZM78.1578 14.2835L80.7857 10.0647H81.7516V15.5193H80.9135V11.3005L78.2999 15.5193H77.3198V10.0647H78.1578V14.2835ZM82.5444 10.846V10.0647H86.9762V10.846H85.1864V15.5193H84.3484V10.846H82.5444ZM90.2024 15.6329C89.6768 15.6329 89.2235 15.5169 88.8423 15.2849C88.4635 15.0505 88.1712 14.7238 87.9652 14.3048C87.7616 13.8834 87.6598 13.3933 87.6598 12.8346C87.6598 12.2759 87.7616 11.7835 87.9652 11.3574C88.1712 10.9289 88.4576 10.595 88.8246 10.3559C89.1939 10.1145 89.6248 9.99372 90.1172 9.99372C90.4013 9.99372 90.6818 10.0411 90.9588 10.1358C91.2358 10.2305 91.4879 10.3843 91.7152 10.5974C91.9425 10.8081 92.1236 11.0875 92.2585 11.4355C92.3935 11.7835 92.4609 12.212 92.4609 12.721V13.0761H88.2564V12.3517H91.6087C91.6087 12.0439 91.5471 11.7693 91.424 11.5278C91.3033 11.2863 91.1304 11.0958 90.9055 10.9561C90.683 10.8164 90.4202 10.7466 90.1172 10.7466C89.7834 10.7466 89.4946 10.8294 89.2507 10.9951C89.0092 11.1585 88.8234 11.3716 88.6932 11.6343C88.563 11.8971 88.4979 12.1789 88.4979 12.4795V12.9625C88.4979 13.3744 88.5689 13.7236 88.7109 14.0101C88.8554 14.2941 89.0554 14.5108 89.3111 14.6599C89.5668 14.8067 89.8639 14.8801 90.2024 14.8801C90.4226 14.8801 90.6214 14.8493 90.799 14.7878C90.9789 14.7238 91.134 14.6291 91.2642 14.5037C91.3944 14.3758 91.495 14.2172 91.5661 14.0278L92.3757 14.2551C92.2905 14.5297 92.1473 14.7712 91.946 14.9795C91.7448 15.1855 91.4962 15.3465 91.2003 15.4625C90.9044 15.5761 90.5717 15.6329 90.2024 15.6329ZM96.5483 15.5193V10.0647H98.7784C99.3655 10.0647 99.8319 10.1973 100.178 10.4625C100.523 10.7276 100.696 11.078 100.696 11.5136C100.696 11.845 100.598 12.1019 100.401 12.2842C100.205 12.4641 99.9527 12.586 99.6449 12.65C99.8461 12.6784 100.041 12.7494 100.231 12.863C100.423 12.9767 100.581 13.1329 100.707 13.3318C100.832 13.5283 100.895 13.7698 100.895 14.0562C100.895 14.3356 100.824 14.5853 100.682 14.8055C100.54 15.0257 100.336 15.1997 100.071 15.3275C99.8059 15.4554 99.4886 15.5193 99.1193 15.5193H96.5483ZM97.3438 14.7522H99.1193C99.4081 14.7522 99.6342 14.6836 99.7976 14.5463C99.9609 14.409 100.043 14.2219 100.043 13.9852C100.043 13.7035 99.9609 13.4821 99.7976 13.3211C99.6342 13.1578 99.4081 13.0761 99.1193 13.0761H97.3438V14.7522ZM97.3438 12.3517H98.7784C99.0033 12.3517 99.1963 12.3209 99.3572 12.2593C99.5182 12.1954 99.6413 12.1055 99.7266 11.9895C99.8142 11.8711 99.858 11.7314 99.858 11.5704C99.858 11.3408 99.7621 11.1609 99.5703 11.0307C99.3786 10.8981 99.1146 10.8318 98.7784 10.8318H97.3438V12.3517Z" fill="white"/>
</svg>
