<svg width="40" height="40" viewBox="0 0 40 40" fill="none" xmlns="http://www.w3.org/2000/svg">
<path fill-rule="evenodd" clip-rule="evenodd" d="M0 20C0 8.955 8.955 0 20 0C31.045 0 40 8.95253 40 20C40 31.045 31.045 40 20 40C8.955 40 0 31.045 0 20ZM21.8924 19.9999L25.1699 19.9974L25.6074 15.8625H21.8874L21.8924 13.7924C21.8924 12.715 21.9674 12.1375 23.5149 12.1375H25.5849V8H22.2749C18.3024 8 17.3874 10.0525 17.3874 13.4275L17.3924 15.8625L14.3925 15.8649V20H17.3924V31.9998H21.8899L21.8924 19.9999Z" fill="white"/>
</svg>
