<svg width="140" height="41" viewBox="0 0 140 41" fill="none" xmlns="http://www.w3.org/2000/svg">
<path d="M134.815 41H5.18518C2.33463 41 0 38.6925 0 35.875V5.125C0 2.30754 2.33463 4.52891e-06 5.18518 4.52891e-06H134.815C137.665 4.52891e-06 140 2.30754 140 5.125V35.875C140 38.6925 137.665 41 134.815 41Z" fill="black"/>
<path d="M134.815 0.821284C137.216 0.821284 139.169 2.75213 139.169 5.125V35.875C139.169 38.2479 137.216 40.1787 134.815 40.1787H5.18518C2.78444 40.1787 0.830926 38.2479 0.830926 35.875V5.125C0.830926 2.75213 2.78444 0.821284 5.18518 0.821284H134.815ZM134.815 4.52891e-06H5.18518C2.33463 4.52891e-06 0 2.30754 0 5.125V35.875C0 38.6925 2.33463 41 5.18518 41H134.815C137.665 41 140 38.6925 140 35.875V5.125C140 2.30754 137.665 4.52891e-06 134.815 4.52891e-06Z" fill="#A6A6A6"/>
<path d="M70.6591 22.2963C68.2233 22.2963 66.2335 24.1285 66.2335 26.6564C66.2335 29.1638 68.2233 31.0152 70.6591 31.0152C73.1 31.0152 75.0898 29.1638 75.0898 26.6564C75.0898 24.1285 73.1 22.2963 70.6591 22.2963ZM70.6591 29.2984C69.3226 29.2984 68.1728 28.208 68.1728 26.6564C68.1728 25.0843 69.3226 24.0132 70.6591 24.0132C71.9955 24.0132 73.1505 25.0843 73.1505 26.6564C73.1505 28.208 71.9955 29.2984 70.6591 29.2984V29.2984ZM61.0029 22.2963C58.562 22.2963 56.5774 24.1285 56.5774 26.6564C56.5774 29.1638 58.562 31.0152 61.0029 31.0152C63.4426 31.0152 65.4285 29.1638 65.4285 26.6564C65.4285 24.1285 63.4426 22.2963 61.0029 22.2963ZM61.0029 29.2984C59.6652 29.2984 58.5115 28.208 58.5115 26.6564C58.5115 25.0843 59.6652 24.0132 61.0029 24.0132C62.3394 24.0132 63.4892 25.0843 63.4892 26.6564C63.4892 28.208 62.3394 29.2984 61.0029 29.2984ZM49.5126 23.6327V25.4854H53.9887C53.8578 26.5206 53.5078 27.2817 52.9711 27.8121C52.3178 28.4527 51.3002 29.1638 49.5126 29.1638C46.758 29.1638 44.6009 26.9665 44.6009 24.2438C44.6009 21.5212 46.758 19.3238 49.5126 19.3238C51.002 19.3238 52.0857 19.8991 52.8855 20.6448L54.2065 19.3392C53.0878 18.2834 51.5996 17.4724 49.5126 17.4724C45.7352 17.4724 42.5605 20.5103 42.5605 24.2438C42.5605 27.9774 45.7352 31.0152 49.5126 31.0152C51.5542 31.0152 53.0878 30.3541 54.2933 29.1139C55.5287 27.8928 55.9137 26.1759 55.9137 24.7896C55.9137 24.3591 55.8774 23.9632 55.8126 23.6327H49.5126ZM96.4981 25.0689C96.1339 24.0939 95.01 22.2963 92.7207 22.2963C90.4522 22.2963 88.5635 24.0632 88.5635 26.6564C88.5635 29.0985 90.4327 31.0152 92.9385 31.0152C94.9646 31.0152 96.1339 29.7942 96.6148 29.0831L95.1111 28.0927C94.6094 28.8179 93.9263 29.2984 92.9385 29.2984C91.9572 29.2984 91.2533 28.8538 90.8022 27.9774L96.7016 25.5648L96.4981 25.0689V25.0689ZM90.4833 26.5206C90.4328 24.8396 91.8042 23.9786 92.7868 23.9786C93.5568 23.9786 94.2102 24.3591 94.4279 24.9037L90.4833 26.5206V26.5206ZM85.6883 30.75H87.6276V17.9375H85.6883V30.75ZM82.5124 23.2675H82.4476C82.012 22.7576 81.1811 22.2963 80.1285 22.2963C77.9196 22.2963 75.9 24.2131 75.9 26.6705C75.9 29.1139 77.9196 31.0152 80.1285 31.0152C81.1811 31.0152 82.012 30.5501 82.4476 30.0248H82.5124V30.6501C82.5124 32.317 81.6115 33.2126 80.1583 33.2126C78.9735 33.2126 78.2385 32.3669 77.9352 31.6559L76.2487 32.3516C76.7348 33.5073 78.022 34.9294 80.1583 34.9294C82.432 34.9294 84.3505 33.6072 84.3505 30.39V22.5615H82.5124V23.2675V23.2675ZM80.2944 29.2984C78.9579 29.2984 77.8392 28.1926 77.8392 26.6705C77.8392 25.1343 78.9579 24.0132 80.2944 24.0132C81.6115 24.0132 82.6498 25.1343 82.6498 26.6705C82.6498 28.1926 81.6115 29.2984 80.2944 29.2984V29.2984ZM105.577 17.9375H100.939V30.75H102.873V25.8954H105.577C107.725 25.8954 109.832 24.3591 109.832 21.9158C109.832 19.4737 107.72 17.9375 105.577 17.9375V17.9375ZM105.628 24.1131H102.873V19.7197H105.628C107.072 19.7197 107.896 20.9049 107.896 21.9158C107.896 22.9075 107.072 24.1131 105.628 24.1131ZM117.584 22.272C116.186 22.272 114.733 22.8819 114.136 24.2336L115.852 24.9447C116.221 24.2336 116.901 24.0029 117.619 24.0029C118.622 24.0029 119.64 24.5987 119.655 25.6506V25.7852C119.305 25.5853 118.556 25.2893 117.634 25.2893C115.786 25.2893 113.902 26.2951 113.902 28.1721C113.902 29.889 115.416 30.9947 117.118 30.9947C118.42 30.9947 119.138 30.4143 119.589 29.7391H119.655V30.7295H121.523V25.8146C121.523 23.543 119.807 22.272 117.584 22.272ZM117.35 29.2932C116.718 29.2932 115.836 28.9832 115.836 28.208C115.836 27.2163 116.936 26.8358 117.887 26.8358C118.739 26.8358 119.138 27.0216 119.655 27.2663C119.503 28.4527 118.47 29.2932 117.35 29.2932V29.2932ZM128.329 22.5526L126.106 28.1068H126.039L123.741 22.5526H121.655L125.109 30.3144L123.138 34.6335H125.159L130.481 22.5526H128.329V22.5526ZM110.895 30.75H112.834V17.9375H110.895V30.75Z" fill="white"/>
<path d="M10.8208 7.72717C10.5161 8.04236 10.3398 8.53307 10.3398 9.16857V31.8365C10.3398 32.472 10.5161 32.9627 10.8208 33.2779L10.896 33.347L23.7474 20.6499V20.35L10.896 7.65286L10.8208 7.72717Z" fill="url(#paint0_linear_6980_1691)"/>
<path d="M28.0291 24.8844L23.75 20.6499V20.3501L28.0343 16.1155L28.1302 16.1706L33.2039 19.024C34.6519 19.8337 34.6519 21.1662 33.2039 21.9811L28.1302 24.8293L28.0291 24.8844V24.8844Z" fill="url(#paint1_linear_6980_1691)"/>
<path d="M28.1272 24.8293L23.747 20.4999L10.8203 33.2778C11.3012 33.7775 12.0855 33.8378 12.9773 33.3381L28.1272 24.8293" fill="url(#paint2_linear_6980_1691)"/>
<path d="M28.1272 16.1707L12.9773 7.66188C12.0855 7.16732 11.3012 7.22753 10.8203 7.72722L23.747 20.5L28.1272 16.1707Z" fill="url(#paint3_linear_6980_1691)"/>
<path d="M43.0661 14.5275V12.2391H43.4879C43.6328 12.107 43.7692 11.9206 43.897 11.6798C44.027 11.4369 44.1367 11.1131 44.2262 10.7082C44.3178 10.3013 44.3786 9.78459 44.4084 9.15817L44.549 6.39681H48.4354V12.2391H49.1896V14.5147H48.4354V12.9423H43.8203V14.5275H43.0661ZM44.4339 12.2391H47.6811V7.09993H45.2649L45.1626 9.15817C45.1371 9.63544 45.0923 10.068 45.0284 10.4558C44.9645 10.8414 44.8825 11.1834 44.7823 11.4817C44.6822 11.7778 44.5661 12.0303 44.4339 12.2391ZM55.9101 9.66953C55.9101 10.3599 55.7854 10.9565 55.5361 11.4593C55.2868 11.9621 54.9449 12.3499 54.5102 12.6227C54.0756 12.8954 53.5791 13.0317 53.0209 13.0317C52.4626 13.0317 51.9662 12.8954 51.5315 12.6227C51.0969 12.3499 50.7549 11.9621 50.5056 11.4593C50.2563 10.9565 50.1317 10.3599 50.1317 9.66953C50.1317 8.97919 50.2563 8.3826 50.5056 7.87976C50.7549 7.37692 51.0969 6.98914 51.5315 6.71641C51.9662 6.44368 52.4626 6.30732 53.0209 6.30732C53.5791 6.30732 54.0756 6.44368 54.5102 6.71641C54.9449 6.98914 55.2868 7.37692 55.5361 7.87976C55.7854 8.3826 55.9101 8.97919 55.9101 9.66953ZM55.143 9.66953C55.143 9.10277 55.0482 8.62443 54.8586 8.23452C54.6711 7.8446 54.4165 7.5495 54.0947 7.34922C53.7751 7.14894 53.4172 7.04879 53.0209 7.04879C52.6246 7.04879 52.2655 7.14894 51.9438 7.34922C51.6242 7.5495 51.3696 7.8446 51.18 8.23452C50.9925 8.62443 50.8987 9.10277 50.8987 9.66953C50.8987 10.2363 50.9925 10.7146 51.18 11.1045C51.3696 11.4945 51.6242 11.7896 51.9438 11.9898C52.2655 12.1901 52.6246 12.2903 53.0209 12.2903C53.4172 12.2903 53.7751 12.1901 54.0947 11.9898C54.4165 11.7896 54.6711 11.4945 54.8586 11.1045C55.0482 10.7146 55.143 10.2363 55.143 9.66953ZM62.5099 8.44226H61.7172C61.6704 8.21428 61.5883 8.01399 61.4711 7.84141C61.3561 7.66882 61.2155 7.52394 61.0493 7.40675C60.8852 7.28743 60.703 7.19794 60.5028 7.13828C60.3025 7.07862 60.0937 7.04879 59.8763 7.04879C59.48 7.04879 59.121 7.14894 58.7993 7.34922C58.4797 7.5495 58.2251 7.8446 58.0354 8.23452C57.8479 8.62443 57.7542 9.10277 57.7542 9.66953C57.7542 10.2363 57.8479 10.7146 58.0354 11.1045C58.2251 11.4945 58.4797 11.7896 58.7993 11.9898C59.121 12.1901 59.48 12.2903 59.8763 12.2903C60.0937 12.2903 60.3025 12.2604 60.5028 12.2008C60.703 12.1411 60.8852 12.0527 61.0493 11.9355C61.2155 11.8162 61.3561 11.6702 61.4711 11.4977C61.5883 11.3229 61.6704 11.1227 61.7172 10.8968H62.5099C62.4502 11.2313 62.3415 11.5307 62.1839 11.7949C62.0262 12.0591 61.8302 12.2839 61.5958 12.4692C61.3614 12.6525 61.0983 12.792 60.8064 12.8879C60.5166 12.9838 60.2066 13.0317 59.8763 13.0317C59.3181 13.0317 58.8216 12.8954 58.387 12.6227C57.9523 12.3499 57.6104 11.9621 57.3611 11.4593C57.1118 10.9565 56.9871 10.3599 56.9871 9.66953C56.9871 8.97919 57.1118 8.3826 57.3611 7.87976C57.6104 7.37692 57.9523 6.98914 58.387 6.71641C58.8216 6.44368 59.3181 6.30732 59.8763 6.30732C60.2066 6.30732 60.5166 6.35526 60.8064 6.45114C61.0983 6.54702 61.3614 6.68764 61.5958 6.87301C61.8302 7.05625 62.0262 7.27997 62.1839 7.54418C62.3415 7.80625 62.4502 8.10561 62.5099 8.44226ZM63.4327 7.09993V6.39681H68.3418V7.09993H66.2836V12.9423H65.4909V7.09993H63.4327ZM69.9102 13.0317V12.2903H70.3193C70.477 12.2903 70.6091 12.2594 70.7156 12.1976C70.8243 12.1358 70.9138 12.0559 70.9841 11.9579C71.0566 11.8599 71.1162 11.7576 71.1631 11.6511L71.2654 11.4082L69.0026 6.39681H69.8591L71.6617 10.4621L73.3108 6.39681H74.1546L71.8918 11.8812C71.8023 12.0857 71.7 12.2754 71.585 12.4501C71.472 12.6248 71.3176 12.7654 71.1215 12.8719C70.9276 12.9785 70.6645 13.0317 70.3321 13.0317H69.9102ZM80.0776 6.39681V12.9423H79.285V7.09993H75.9867V12.9423H75.1941V6.39681H80.0776ZM81.6764 12.9423V6.39681H82.469V9.31158H85.9591V6.39681H86.7517V12.9423H85.9591V10.0147H82.469V12.9423H81.6764ZM93.8612 9.66953C93.8612 10.3599 93.7366 10.9565 93.4873 11.4593C93.238 11.9621 92.896 12.3499 92.4614 12.6227C92.0267 12.8954 91.5303 13.0317 90.972 13.0317C90.4138 13.0317 89.9173 12.8954 89.4827 12.6227C89.048 12.3499 88.7061 11.9621 88.4568 11.4593C88.2075 10.9565 88.0828 10.3599 88.0828 9.66953C88.0828 8.97919 88.2075 8.3826 88.4568 7.87976C88.7061 7.37692 89.048 6.98914 89.4827 6.71641C89.9173 6.44368 90.4138 6.30732 90.972 6.30732C91.5303 6.30732 92.0267 6.44368 92.4614 6.71641C92.896 6.98914 93.238 7.37692 93.4873 7.87976C93.7366 8.3826 93.8612 8.97919 93.8612 9.66953ZM93.0942 9.66953C93.0942 9.10277 92.9994 8.62443 92.8097 8.23452C92.6222 7.8446 92.3676 7.5495 92.0459 7.34922C91.7263 7.14894 91.3683 7.04879 90.972 7.04879C90.5757 7.04879 90.2167 7.14894 89.895 7.34922C89.5754 7.5495 89.3208 7.8446 89.1311 8.23452C88.9436 8.62443 88.8499 9.10277 88.8499 9.66953C88.8499 10.2363 88.9436 10.7146 89.1311 11.1045C89.3208 11.4945 89.5754 11.7896 89.895 11.9898C90.2167 12.1901 90.5757 12.2903 90.972 12.2903C91.3683 12.2903 91.7263 12.1901 92.0459 11.9898C92.3676 11.7896 92.6222 11.4945 92.8097 11.1045C92.9994 10.7146 93.0942 10.2363 93.0942 9.66953ZM97.7252 12.9423V6.39681H100.014C100.47 6.39681 100.846 6.47564 101.142 6.63331C101.438 6.78885 101.658 6.99872 101.803 7.26293C101.948 7.525 102.021 7.81584 102.021 8.13544C102.021 8.41669 101.971 8.64894 101.87 8.83218C101.772 9.01541 101.642 9.1603 101.481 9.26683C101.321 9.37337 101.147 9.4522 100.96 9.50334V9.56726C101.16 9.58004 101.361 9.65036 101.564 9.7782C101.766 9.90604 101.935 10.0893 102.072 10.3279C102.208 10.5666 102.276 10.8585 102.276 11.2036C102.276 11.5317 102.202 11.8268 102.053 12.0889C101.903 12.351 101.668 12.5587 101.346 12.7121C101.025 12.8656 100.606 12.9423 100.09 12.9423H97.7252ZM98.5178 12.2391H100.09C100.608 12.2391 100.976 12.139 101.193 11.9387C101.412 11.7363 101.522 11.4913 101.522 11.2036C101.522 10.982 101.466 10.7775 101.353 10.59C101.24 10.4004 101.079 10.2491 100.87 10.1362C100.661 10.0211 100.414 9.96357 100.129 9.96357H98.5178V12.2391ZM98.5178 9.27323H99.988C100.227 9.27323 100.442 9.22635 100.634 9.1326C100.828 9.03885 100.981 8.90675 101.094 8.73629C101.209 8.56584 101.266 8.36556 101.266 8.13544C101.266 7.8478 101.166 7.60384 100.966 7.40355C100.766 7.20114 100.448 7.09993 100.014 7.09993H98.5178V9.27323Z" fill="white"/>
<defs>
<linearGradient id="paint0_linear_6980_1691" x1="22.6064" y1="32.0725" x2="5.40559" y2="14.6697" gradientUnits="userSpaceOnUse">
<stop stop-color="#00A0FF"/>
<stop offset="0.0066" stop-color="#00A1FF"/>
<stop offset="0.2601" stop-color="#00BEFF"/>
<stop offset="0.5122" stop-color="#00D2FF"/>
<stop offset="0.7604" stop-color="#00DFFF"/>
<stop offset="1" stop-color="#00E3FF"/>
</linearGradient>
<linearGradient id="paint1_linear_6980_1691" x1="35.0894" y1="20.4985" x2="9.9963" y2="20.4985" gradientUnits="userSpaceOnUse">
<stop stop-color="#FFE000"/>
<stop offset="0.4087" stop-color="#FFBD00"/>
<stop offset="0.7754" stop-color="#FFA500"/>
<stop offset="1" stop-color="#FF9C00"/>
</linearGradient>
<linearGradient id="paint2_linear_6980_1691" x1="25.7453" y1="18.1464" x2="2.41968" y2="-5.45315" gradientUnits="userSpaceOnUse">
<stop stop-color="#FF3A44"/>
<stop offset="1" stop-color="#C31162"/>
</linearGradient>
<linearGradient id="paint3_linear_6980_1691" x1="7.5664" y1="40.8194" x2="17.9824" y2="30.2812" gradientUnits="userSpaceOnUse">
<stop stop-color="#32A071"/>
<stop offset="0.0685" stop-color="#2DA771"/>
<stop offset="0.4762" stop-color="#15CF74"/>
<stop offset="0.8009" stop-color="#06E775"/>
<stop offset="1" stop-color="#00F076"/>
</linearGradient>
</defs>
</svg>
