<svg width="40" height="40" viewBox="0 0 40 40" fill="none" xmlns="http://www.w3.org/2000/svg">
<path fill-rule="evenodd" clip-rule="evenodd" d="M20 0C8.95599 0 0 8.95599 0 20C0 31.044 8.95599 40 20 40C31.044 40 40 31.044 40 20C40 8.95599 31.044 0 20 0ZM31.4151 24.7348C31.3596 25.9573 31.1652 26.792 30.8813 27.5226C30.2847 29.0652 29.0652 30.2847 27.5226 30.8813C26.7923 31.1652 25.9573 31.3593 24.7351 31.4151C23.5104 31.4709 23.1192 31.4844 20.0003 31.4844C16.8811 31.4844 16.4902 31.4709 15.2652 31.4151C14.043 31.3593 13.208 31.1652 12.4777 30.8813C11.7111 30.593 11.0172 30.141 10.4434 29.5566C9.85931 28.9832 9.40735 28.2889 9.11896 27.5226C8.83514 26.7923 8.64075 25.9573 8.58521 24.7351C8.52875 23.5101 8.51562 23.1189 8.51562 20C8.51562 16.8811 8.52875 16.4899 8.5849 15.2652C8.64044 14.0427 8.83453 13.208 9.11835 12.4774C9.40674 11.7111 9.85901 11.0168 10.4434 10.4434C11.0168 9.85901 11.7111 9.40704 12.4774 9.11865C13.208 8.83484 14.0427 8.64075 15.2652 8.5849C16.4899 8.52905 16.8811 8.51562 20 8.51562C23.1189 8.51562 23.5101 8.52905 24.7348 8.58521C25.9573 8.64075 26.792 8.83484 27.5226 9.11835C28.2889 9.40674 28.9832 9.85901 29.5569 10.4434C30.141 11.0172 30.5933 11.7111 30.8813 12.4774C31.1655 13.208 31.3596 14.0427 31.4154 15.2652C31.4713 16.4899 31.4844 16.8811 31.4844 20C31.4844 23.1189 31.4713 23.5101 31.4151 24.7348ZM28.8952 13.2946C28.7103 12.7937 28.4154 12.3402 28.0322 11.9681C27.66 11.5849 27.2069 11.2899 26.7056 11.1051C26.2991 10.9472 25.6884 10.7593 24.5636 10.7081C23.3469 10.6526 22.9821 10.6406 19.9016 10.6406C16.8209 10.6406 16.4561 10.6523 15.2396 10.7078C14.1148 10.7593 13.5038 10.9472 13.0976 11.1051C12.5964 11.2899 12.143 11.5849 11.7711 11.9681C11.3879 12.3402 11.093 12.7934 10.9078 13.2946C10.7499 13.7011 10.562 14.3121 10.5108 15.4369C10.4553 16.6534 10.4434 17.0182 10.4434 20.0989C10.4434 23.1793 10.4553 23.5441 10.5108 24.7609C10.562 25.8857 10.7499 26.4964 10.9078 26.9029C11.093 27.4042 11.3876 27.8573 11.7708 28.2294C12.143 28.6126 12.5961 28.9076 13.0973 29.0924C13.5038 29.2506 14.1148 29.4385 15.2396 29.4897C16.4561 29.5452 16.8206 29.5569 19.9013 29.5569C22.9824 29.5569 23.3472 29.5452 24.5633 29.4897C25.6881 29.4385 26.2991 29.2506 26.7056 29.0924C27.7118 28.7043 28.507 27.9091 28.8952 26.9029C29.053 26.4964 29.241 25.8857 29.2925 24.7609C29.348 23.5441 29.3596 23.1793 29.3596 20.0989C29.3596 17.0182 29.348 16.6534 29.2925 15.4369C29.2413 14.3121 29.0534 13.7011 28.8952 13.2946ZM19.9016 26.0221C16.6296 26.0221 13.9772 23.37 13.9772 20.098C13.9772 16.826 16.6296 14.1738 19.9016 14.1738C23.1733 14.1738 25.8258 16.826 25.8258 20.098C25.8258 23.37 23.1733 26.0221 19.9016 26.0221ZM24.6755 13.9401C24.6755 14.7047 25.2954 15.3246 26.06 15.3246C26.8246 15.3246 27.4442 14.7047 27.4445 13.9401C27.4445 13.1755 26.8246 12.5557 26.06 12.5557C25.2954 12.5557 24.6755 13.1755 24.6755 13.9401ZM23.8423 19.9996C23.8423 22.1217 22.1221 23.842 20 23.842C17.8778 23.842 16.1576 22.1217 16.1576 19.9996C16.1576 17.8775 17.8778 16.1572 20 16.1572C22.1221 16.1572 23.8423 17.8775 23.8423 19.9996Z" fill="white"/>
</svg>
