<svg width="40" height="490" viewBox="0 0 40 490" fill="none" xmlns="http://www.w3.org/2000/svg">
<path d="M25.22 114.06V117H14.52L17.9 113.46C19.1133 112.193 20.0267 111.067 20.64 110.08C21.12 109.333 21.36 108.64 21.36 108C21.36 107.44 21.2267 107.013 20.96 106.72C20.72 106.453 20.3933 106.32 19.98 106.32C19.4867 106.32 19.1 106.5 18.82 106.86C18.5267 107.233 18.3667 107.78 18.34 108.5H14.76C14.7733 107.007 15.2667 105.773 16.24 104.8C17.2 103.84 18.46 103.36 20.02 103.36C21.6067 103.36 22.86 103.82 23.78 104.74C24.6467 105.607 25.08 106.7 25.08 108.02C25.08 109.433 24.42 110.753 23.1 111.98L20.86 114.06H25.22Z" fill="#C3B9B5"/>
<path d="M18.68 27V16.6H16.78V13.66H22.14V27H18.68Z" fill="#080606"/>
<path d="M14.56 202.44H18.1C18.1267 203 18.3067 203.447 18.64 203.78C18.96 204.127 19.4133 204.3 20 204.3C20.5467 204.3 21 204.107 21.36 203.72C21.6267 203.413 21.76 203.047 21.76 202.62C21.76 202.127 21.5867 201.733 21.24 201.44C20.9333 201.187 20.5067 201.06 19.96 201.06C19.7333 201.06 19.54 201.087 19.38 201.14V198.8C19.9667 198.88 20.44 198.767 20.8 198.46C21.0933 198.207 21.24 197.893 21.24 197.52C21.24 197.12 21.12 196.8 20.88 196.56C20.64 196.32 20.3133 196.2 19.9 196.2C19.4867 196.2 19.1667 196.313 18.94 196.54C18.6333 196.82 18.48 197.213 18.48 197.72H15.26C15.3267 196.48 15.76 195.46 16.56 194.66C17.3867 193.793 18.56 193.36 20.08 193.36C21.4933 193.36 22.6 193.753 23.4 194.54C24.12 195.26 24.48 196.12 24.48 197.12C24.48 197.733 24.3467 198.28 24.08 198.76C23.8267 199.227 23.4867 199.567 23.06 199.78C23.7133 200.02 24.24 200.427 24.64 201C25.0133 201.547 25.2 202.2 25.2 202.96C25.2 204.12 24.8067 205.093 24.02 205.88C23.0733 206.827 21.7467 207.3 20.04 207.3C18.48 207.3 17.2067 206.84 16.22 205.92C15.2467 205.027 14.6933 203.867 14.56 202.44Z" fill="#C3B9B5"/>
<path d="M23.9 373.66V376.6H19.28L19.04 378.08C19.4533 378.013 19.8133 377.98 20.12 377.98C21.6133 377.98 22.7867 378.42 23.64 379.3C24.4533 380.113 24.86 381.167 24.86 382.46C24.86 383.807 24.4333 384.92 23.58 385.8C22.6067 386.8 21.22 387.3 19.42 387.3C17.6867 387.3 16.1867 386.9 14.92 386.1L15.44 382.86C15.9467 383.327 16.48 383.687 17.04 383.94C17.6933 384.247 18.36 384.4 19.04 384.4C19.7867 384.4 20.3667 384.18 20.78 383.74C21.1267 383.367 21.3 382.913 21.3 382.38C21.3 381.793 21.0867 381.313 20.66 380.94C20.1667 380.5 19.3667 380.28 18.26 380.28C17.3667 380.28 16.5467 380.467 15.8 380.84L16.96 373.66H23.9Z" fill="#C3B9B5"/>
<path d="M23.88 283.66V291.82H25.5V294.48H23.88V297H20.68V294.48H14.22V292.26L19.36 283.66H23.88ZM17.54 291.82H20.68V286.38L17.54 291.82Z" fill="#C3B9B5"/>
<path d="M19.34 463.66H23.28L19.48 468.2C20.1067 467.92 20.7267 467.78 21.34 467.78C22.5 467.78 23.5067 468.207 24.36 469.06C25.2 469.9 25.62 470.96 25.62 472.24C25.62 473.64 25.16 474.8 24.24 475.72C23.1867 476.773 21.7667 477.3 19.98 477.3C18.1133 477.3 16.6533 476.76 15.6 475.68C14.7867 474.84 14.38 473.8 14.38 472.56C14.38 470.987 15.04 469.327 16.36 467.58L19.34 463.66ZM18.34 473.88C18.78 474.333 19.3067 474.56 19.92 474.56C20.5333 474.56 21.0467 474.353 21.46 473.94C21.8733 473.527 22.08 473.02 22.08 472.42C22.08 471.887 21.8733 471.42 21.46 471.02C21.0333 470.607 20.52 470.4 19.92 470.4C19.3467 470.4 18.8467 470.593 18.42 470.98C17.98 471.38 17.76 471.84 17.76 472.36C17.76 472.96 17.9533 473.467 18.34 473.88Z" fill="#C3B9B5"/>
<circle cx="20" cy="20" r="19" stroke="#EDE9E8" stroke-width="2"/>
<path d="M39 20C39.5523 20 40.0026 19.5519 39.975 19.0003C39.7614 14.7302 38.1837 10.6307 35.4602 7.31213C32.5248 3.73533 28.44 1.287 23.9018 0.384295C19.3636 -0.518409 14.6528 0.180372 10.5721 2.36157C6.49132 4.54278 3.29313 8.07144 1.52241 12.3463C-0.248307 16.6212 -0.481985 21.3778 0.861193 25.8057C2.20437 30.2336 5.0413 34.0587 8.88859 36.6294C12.7359 39.2001 17.3555 40.3572 21.9603 39.9037C26.2327 39.4829 30.2471 37.6998 33.4176 34.8313C33.8271 34.4608 33.8256 33.8256 33.435 33.435C33.0445 33.0445 32.4131 33.0469 32.0015 33.4151C29.1597 35.9575 25.5761 37.5379 21.7643 37.9133C17.62 38.3215 13.4623 37.2801 9.99973 34.9665C6.53717 32.6528 3.98393 29.2102 2.77507 25.2251C1.56621 21.24 1.77652 16.9591 3.37017 13.1117C4.96381 9.2643 7.84219 6.0885 11.5149 4.12542C15.1875 2.16233 19.4272 1.53343 23.5116 2.34587C27.596 3.1583 31.2723 5.3618 33.9142 8.58092C36.3441 11.5417 37.7606 15.1933 37.9722 19.0004C38.0029 19.5519 38.4477 20 39 20Z" fill="#080606"/>
</svg>
