<svg width="324" height="90" viewBox="0 0 324 90" fill="none" xmlns="http://www.w3.org/2000/svg">
<path d="M113.36 68.7H116.5C117.26 68.7 117.84 68.86 118.24 69.18C118.72 69.5667 118.96 70.0867 118.96 70.74C118.96 71.46 118.66 72.0133 118.06 72.4C118.473 72.5067 118.82 72.6933 119.1 72.96C119.54 73.3867 119.76 73.92 119.76 74.56C119.76 75.36 119.473 75.9867 118.9 76.44C118.407 76.8133 117.753 77 116.94 77H113.36V68.7ZM114.8 72.08H116.32C116.707 72.08 117.013 72 117.24 71.84C117.507 71.64 117.64 71.3533 117.64 70.98C117.64 70.6467 117.507 70.38 117.24 70.18C117.04 70.0467 116.653 69.98 116.08 69.98H114.8V72.08ZM114.8 75.72H116.58C117.193 75.72 117.627 75.6267 117.88 75.44C118.2 75.2 118.36 74.8933 118.36 74.52C118.36 74.12 118.22 73.8067 117.94 73.58C117.687 73.38 117.253 73.28 116.64 73.28H114.8V75.72ZM128.114 74.22L129.314 74.88C129.034 75.4133 128.694 75.86 128.294 76.22C127.534 76.9 126.614 77.24 125.534 77.24C124.414 77.24 123.447 76.88 122.634 76.16C121.834 75.4267 121.434 74.34 121.434 72.9C121.434 71.6333 121.794 70.5867 122.514 69.76C123.247 68.92 124.227 68.5 125.454 68.5C126.84 68.5 127.887 69.0067 128.594 70.02C129.154 70.82 129.414 71.86 129.374 73.14H122.914C122.927 73.98 123.187 74.66 123.694 75.18C124.2 75.7 124.82 75.96 125.554 75.96C126.207 75.96 126.774 75.76 127.254 75.36C127.627 75.04 127.914 74.66 128.114 74.22ZM123.014 71.94H127.894C127.774 71.2867 127.487 70.7667 127.034 70.38C126.594 69.98 126.067 69.78 125.454 69.78C124.854 69.78 124.32 69.9867 123.854 70.4C123.4 70.8 123.12 71.3133 123.014 71.94ZM137.023 70.02H134.423V77H132.983V70.02H130.383V68.7H137.023V70.02ZM144.5 74.22L145.7 74.88C145.42 75.4133 145.08 75.86 144.68 76.22C143.92 76.9 143 77.24 141.92 77.24C140.8 77.24 139.834 76.88 139.02 76.16C138.22 75.4267 137.82 74.34 137.82 72.9C137.82 71.6333 138.18 70.5867 138.9 69.76C139.634 68.92 140.614 68.5 141.84 68.5C143.227 68.5 144.274 69.0067 144.98 70.02C145.54 70.82 145.8 71.86 145.76 73.14H139.3C139.314 73.98 139.574 74.66 140.08 75.18C140.587 75.7 141.207 75.96 141.94 75.96C142.594 75.96 143.16 75.76 143.64 75.36C144.014 75.04 144.3 74.66 144.5 74.22ZM139.4 71.94H144.28C144.16 71.2867 143.874 70.7667 143.42 70.38C142.98 69.98 142.454 69.78 141.84 69.78C141.24 69.78 140.707 69.9867 140.24 70.4C139.787 70.8 139.507 71.3133 139.4 71.94ZM149.409 75.84V81.6H147.969V68.7H149.409V69.86C150.143 68.9533 151.089 68.5 152.249 68.5C153.489 68.5 154.469 68.94 155.189 69.82C155.923 70.6867 156.289 71.7133 156.289 72.9C156.289 74.1 155.929 75.1267 155.209 75.98C154.489 76.82 153.523 77.24 152.309 77.24C151.096 77.24 150.129 76.7733 149.409 75.84ZM152.109 75.96C152.923 75.96 153.576 75.6667 154.069 75.08C154.563 74.48 154.809 73.7533 154.809 72.9C154.809 71.94 154.536 71.18 153.989 70.62C153.443 70.06 152.809 69.78 152.089 69.78C151.369 69.78 150.729 70.06 150.169 70.62C149.609 71.18 149.329 71.9333 149.329 72.88C149.329 73.7467 149.583 74.48 150.089 75.08C150.609 75.6667 151.283 75.96 152.109 75.96ZM158.497 68.7H159.937V74.18L165.617 68.06V77H164.177V71.46L158.497 77.58V68.7ZM168.34 77V68.7H169.78V72.1H173.7V68.7H175.14V77H173.7V73.42H169.78V77H168.34ZM184.212 69.88V68.7H185.652V77H184.212V75.84C183.492 76.7733 182.546 77.24 181.372 77.24C180.252 77.24 179.299 76.8533 178.512 76.08C177.726 75.3067 177.332 74.2267 177.332 72.84C177.332 71.48 177.719 70.42 178.492 69.66C179.279 68.8867 180.239 68.5 181.372 68.5C182.572 68.5 183.519 68.96 184.212 69.88ZM181.532 69.78C180.772 69.78 180.126 70.0533 179.592 70.6C179.072 71.1333 178.812 71.88 178.812 72.84C178.812 73.76 179.052 74.5133 179.532 75.1C180.026 75.6733 180.692 75.96 181.532 75.96C182.372 75.96 183.039 75.66 183.532 75.06C184.039 74.46 184.292 73.7267 184.292 72.86C184.292 71.8733 184.012 71.1133 183.452 70.58C182.892 70.0467 182.252 69.78 181.532 69.78ZM189.82 75.84V81.6H188.38V68.7H189.82V69.86C190.553 68.9533 191.5 68.5 192.66 68.5C193.9 68.5 194.88 68.94 195.6 69.82C196.333 70.6867 196.7 71.7133 196.7 72.9C196.7 74.1 196.34 75.1267 195.62 75.98C194.9 76.82 193.933 77.24 192.72 77.24C191.506 77.24 190.54 76.7733 189.82 75.84ZM192.52 75.96C193.333 75.96 193.986 75.6667 194.48 75.08C194.973 74.48 195.22 73.7533 195.22 72.9C195.22 71.94 194.946 71.18 194.4 70.62C193.853 70.06 193.22 69.78 192.5 69.78C191.78 69.78 191.14 70.06 190.58 70.62C190.02 71.18 189.74 71.9333 189.74 72.88C189.74 73.7467 189.993 74.48 190.5 75.08C191.02 75.6667 191.693 75.96 192.52 75.96ZM198.907 77V68.7H200.347V72.1H204.267V68.7H205.707V77H204.267V73.42H200.347V77H198.907ZM214.779 69.88V68.7H216.219V77H214.779V75.84C214.059 76.7733 213.112 77.24 211.939 77.24C210.819 77.24 209.865 76.8533 209.079 76.08C208.292 75.3067 207.899 74.2267 207.899 72.84C207.899 71.48 208.285 70.42 209.059 69.66C209.845 68.8867 210.805 68.5 211.939 68.5C213.139 68.5 214.085 68.96 214.779 69.88ZM212.099 69.78C211.339 69.78 210.692 70.0533 210.159 70.6C209.639 71.1333 209.379 71.88 209.379 72.84C209.379 73.76 209.619 74.5133 210.099 75.1C210.592 75.6733 211.259 75.96 212.099 75.96C212.939 75.96 213.605 75.66 214.099 75.06C214.605 74.46 214.859 73.7267 214.859 72.86C214.859 71.8733 214.579 71.1133 214.019 70.58C213.459 70.0467 212.819 69.78 212.099 69.78ZM217.986 77L220.566 73.58C220.486 73.58 220.373 73.5667 220.226 73.54C220.093 73.5133 219.893 73.4467 219.626 73.34C219.359 73.2333 219.139 73.0933 218.966 72.92C218.526 72.5067 218.306 71.9533 218.306 71.26C218.306 70.4733 218.553 69.8533 219.046 69.4C219.539 68.9333 220.353 68.7 221.486 68.7H224.386V77H222.946V73.66H222.066L219.706 77H217.986ZM222.946 72.46V69.98H221.606C220.979 69.98 220.546 70.0533 220.306 70.2C219.959 70.4267 219.786 70.7667 219.786 71.22C219.786 71.6733 219.959 72.0067 220.306 72.22C220.559 72.38 220.986 72.46 221.586 72.46H222.946ZM231.778 68.7H233.218V72.1L236.578 68.7H238.338L234.738 72.4L238.778 77H236.898L233.658 73.36L233.218 73.78V77H231.778V68.7ZM246.71 68.7V77H245.27V70.02H242.31V73.76C242.31 74.84 242.097 75.64 241.67 76.16C241.19 76.7467 240.524 77.04 239.67 77.04C239.564 77.04 239.417 77.0267 239.23 77V75.68C239.364 75.7067 239.47 75.72 239.55 75.72C240.017 75.72 240.364 75.54 240.59 75.18C240.777 74.8867 240.87 74.4133 240.87 73.76V68.7H246.71ZM249.434 68.7H250.874V74.18L256.554 68.06V77H255.114V71.46L249.434 77.58V68.7ZM259.278 77V68.7H260.718V72.1H264.638V68.7H266.078V77H264.638V73.42H260.718V77H259.278ZM268.79 68.7H270.23V74.18L275.91 68.06V77H274.47V71.46L268.79 77.58V68.7ZM278.633 68.7H280.073V72.1L283.433 68.7H285.193L281.593 72.4L285.633 77H283.753L280.513 73.36L280.073 73.78V77H278.633V68.7ZM293.431 69.88V68.7H294.871V77H293.431V75.84C292.711 76.7733 291.764 77.24 290.591 77.24C289.471 77.24 288.518 76.8533 287.731 76.08C286.944 75.3067 286.551 74.2267 286.551 72.84C286.551 71.48 286.938 70.42 287.711 69.66C288.498 68.8867 289.458 68.5 290.591 68.5C291.791 68.5 292.738 68.96 293.431 69.88ZM290.751 69.78C289.991 69.78 289.344 70.0533 288.811 70.6C288.291 71.1333 288.031 71.88 288.031 72.84C288.031 73.76 288.271 74.5133 288.751 75.1C289.244 75.6733 289.911 75.96 290.751 75.96C291.591 75.96 292.258 75.66 292.751 75.06C293.258 74.46 293.511 73.7267 293.511 72.86C293.511 71.8733 293.231 71.1133 292.671 70.58C292.111 70.0467 291.471 69.78 290.751 69.78Z" fill="white"/>
<path d="M113.404 45V42.644C115.023 42.644 116.244 42.2249 117.066 41.3867C117.888 40.5404 118.567 39.4295 119.104 38.0542C119.284 37.6799 119.414 37.395 119.495 37.1997C119.707 36.7277 119.874 36.3289 119.996 36.0034L130.604 10.0024H133.655L145.545 37.7979C146.253 39.401 147.059 40.6095 147.962 41.4233C148.873 42.2371 150.005 42.644 151.355 42.644V45H133.655V42.644H136.146C136.683 42.644 137.142 42.5301 137.525 42.3022C137.907 42.0744 138.099 41.7407 138.099 41.3013C138.099 40.9106 137.916 40.2922 137.549 39.4458L135.999 35.9058H122.852L121.9 38.4448C121.631 39.2017 121.497 39.8201 121.497 40.3003C121.497 41.8628 122.681 42.644 125.049 42.644H126.502V45H113.404ZM123.853 33.5498H134.949L129.297 20.4028H129.249L123.853 33.5498ZM154.029 22.1973H166.48V24.5044H165.979C164.848 24.5044 164.283 25.0049 164.283 26.0059V37.395H164.429L171.534 25.7007V25.5542C171.534 24.8543 170.964 24.5044 169.825 24.5044H169.324V22.1973H181.775V24.5044H179.981C178.85 24.5044 178.284 25.0049 178.284 26.0059V41.2036C178.284 42.2046 178.85 42.7051 179.981 42.7051H181.775V45H169.324V42.7051H169.825C170.964 42.7051 171.534 42.2046 171.534 41.2036V30.0952H171.424L164.283 41.0449V41.2036C164.283 42.2046 164.848 42.7051 165.979 42.7051H166.48V45H154.029V42.7051H155.823C156.963 42.7051 157.532 42.2046 157.532 41.2036V26.0059C157.532 25.0049 156.963 24.5044 155.823 24.5044H154.029V22.1973ZM167.884 18.5474C165.849 18.5474 164.047 18.0957 162.476 17.1924C160.914 16.2809 160.132 15.0521 160.132 13.5059C160.132 12.57 160.385 11.8376 160.889 11.3086C161.402 10.7715 162.13 10.5029 163.074 10.5029C163.872 10.5029 164.486 10.743 164.917 11.2231C165.357 11.6951 165.577 12.2689 165.577 12.9443C165.577 13.4245 165.442 13.8761 165.174 14.2993C165.117 14.397 165.015 14.5353 164.869 14.7144C164.722 14.8853 164.604 15.0439 164.515 15.1904C164.425 15.3288 164.38 15.4671 164.38 15.6055C164.38 15.8903 164.625 16.1873 165.113 16.4966C165.601 16.7977 166.525 16.9482 167.884 16.9482C170.211 16.9482 171.375 16.5007 171.375 15.6055C171.375 15.4346 171.334 15.284 171.253 15.1538C171.18 15.0155 171.082 14.8812 170.96 14.751C170.846 14.6126 170.72 14.4621 170.582 14.2993C170.346 13.9738 170.228 13.5221 170.228 12.9443C170.228 11.9596 170.663 11.2272 171.534 10.7471C172.022 10.5843 172.47 10.5029 172.876 10.5029C173.698 10.5029 174.362 10.7715 174.866 11.3086C175.371 11.8457 175.623 12.5781 175.623 13.5059C175.623 14.6126 175.232 15.5485 174.451 16.3135C173.67 17.0703 172.677 17.6318 171.473 17.998C170.268 18.3643 169.072 18.5474 167.884 18.5474ZM206.934 10.3442H208.179C207.927 13.5099 207.04 15.5282 205.518 16.3989C203.996 17.2616 202.186 17.7132 200.086 17.7539C197.449 17.8027 195.362 17.9899 193.824 18.3154C192.294 18.6328 190.988 19.4141 189.905 20.6592C188.823 21.9043 188.147 23.8167 187.879 26.3965H188.184C188.453 26.0303 188.668 25.7129 188.831 25.4443C189.71 24.1667 190.849 23.1657 192.249 22.4414C193.657 21.7171 195.203 21.355 196.888 21.355C198.914 21.355 200.831 21.8311 202.637 22.7832C204.444 23.7272 205.892 25.1025 206.983 26.9092C208.082 28.7158 208.631 30.8276 208.631 33.2446C208.59 35.6535 208.077 37.8141 207.093 39.7266C206.108 41.639 204.721 43.1405 202.93 44.231C201.148 45.3133 199.101 45.8545 196.79 45.8545C195.073 45.8545 193.335 45.4639 191.578 44.6826C189.828 43.8932 188.322 42.4528 187.061 40.3613C185.808 38.2617 185.181 35.4256 185.181 31.853C185.181 27.3853 185.767 23.8167 186.939 21.1475C188.119 18.4782 189.608 16.5617 191.407 15.3979C193.205 14.2261 194.894 13.5099 196.473 13.2495C198.06 12.9891 200.062 12.806 202.479 12.7002C203.341 12.6595 203.968 12.5985 204.358 12.5171C204.749 12.4276 205.136 12.2282 205.518 11.9189C205.909 11.6097 206.381 11.0848 206.934 10.3442ZM196.985 43.4985C198.296 43.409 199.264 42.9655 199.891 42.168C200.525 41.3704 200.924 40.3857 201.087 39.2139C201.25 38.042 201.331 36.5039 201.331 34.5996V33.4033C201.331 30.6364 201.201 28.6833 200.94 27.5439C200.639 26.2256 200.127 25.2572 199.402 24.6387C198.686 24.012 197.913 23.6987 197.083 23.6987C195.252 23.6987 194.027 24.4556 193.409 25.9692C192.79 27.4748 192.481 29.4198 192.481 31.8042V34.7949C192.481 36.5853 192.579 38.0908 192.774 39.3115C192.969 40.5322 193.396 41.5373 194.056 42.3267C194.723 43.1079 195.7 43.4985 196.985 43.4985ZM212.037 33.5986C212.037 31.3281 212.574 29.257 213.648 27.3853C214.722 25.5054 216.167 24.0324 217.981 22.9663C219.796 21.8921 221.766 21.355 223.89 21.355C225.314 21.355 226.73 21.6235 228.138 22.1606C229.554 22.6978 230.835 23.4912 231.983 24.541C233.13 25.5908 234.042 26.8888 234.717 28.4351C235.401 29.9731 235.743 31.6943 235.743 33.5986C235.743 36.1133 235.161 38.3024 233.997 40.166C232.841 42.0296 231.352 43.4456 229.529 44.4141C227.706 45.3743 225.826 45.8545 223.89 45.8545C222.303 45.8545 220.789 45.5493 219.349 44.939C217.916 44.3205 216.647 43.4538 215.54 42.3389C214.433 41.2158 213.571 39.9056 212.952 38.4082C212.342 36.9027 212.037 35.2995 212.037 33.5986ZM219.336 33.5986C219.336 35.568 219.442 37.2689 219.654 38.7012C219.874 40.1253 220.317 41.2809 220.984 42.168C221.66 43.055 222.628 43.4985 223.89 43.4985C225.81 43.4985 227.047 42.5586 227.601 40.6787C228.162 38.7907 228.443 36.4307 228.443 33.5986C228.443 30.7096 228.15 28.3374 227.564 26.4819C226.978 24.6265 225.753 23.6987 223.89 23.6987C222.636 23.6987 221.672 24.1504 220.997 25.0537C220.321 25.957 219.874 27.1289 219.654 28.5693C219.442 30.0016 219.336 31.6781 219.336 33.5986ZM243.287 22.1973H266.138V24.5044H264.344C263.204 24.5044 262.635 25.0049 262.635 26.0059V41.2036C262.635 42.2046 263.204 42.7051 264.344 42.7051H266.138V45H252.393V42.7051H254.188C255.319 42.7051 255.884 42.2046 255.884 41.2036V27.3486C255.884 26.0791 255.713 25.2694 255.372 24.9194C255.03 24.5695 254.354 24.3945 253.345 24.3945C252.507 24.3945 251.88 24.5247 251.465 24.7852C251.058 25.0456 250.753 25.5868 250.55 26.4087C250.354 27.2225 250.232 28.488 250.184 30.2051C249.988 35.2995 249.691 38.6971 249.292 40.3979C248.454 44.0356 246.688 45.8545 243.995 45.8545C242.709 45.8545 241.655 45.6185 240.833 45.1465C240.019 44.6826 239.433 44.1007 239.075 43.4009C238.717 42.6929 238.538 41.9767 238.538 41.2524C238.538 40.0887 238.868 39.1406 239.527 38.4082C240.186 37.6676 241.008 37.2974 241.993 37.2974C242.741 37.2974 243.417 37.5415 244.019 38.0298C244.629 38.5181 244.935 39.2261 244.935 40.1538C244.935 40.3817 244.869 40.6991 244.739 41.106C244.625 41.4152 244.475 41.6634 244.288 41.8506C244.092 42.2412 243.995 42.526 243.995 42.7051C243.995 42.9004 244.21 42.998 244.642 42.998C245.74 42.998 246.521 42.05 246.985 40.1538C247.335 38.7297 247.571 36.8335 247.693 34.4653C247.824 32.089 247.889 30.1522 247.889 28.6548C247.889 27.312 247.714 26.2866 247.364 25.5786C247.014 24.8625 246.22 24.5044 244.983 24.5044H243.287V22.1973ZM269.117 22.1973H281.568V24.5044H281.067C279.936 24.5044 279.371 25.0049 279.371 26.0059V37.395H279.517L286.622 25.7007V25.5542C286.622 24.8543 286.052 24.5044 284.913 24.5044H284.412V22.1973H296.863V24.5044H295.069C293.938 24.5044 293.372 25.0049 293.372 26.0059V41.2036C293.372 42.2046 293.938 42.7051 295.069 42.7051H296.863V45H284.412V42.7051H284.913C286.052 42.7051 286.622 42.2046 286.622 41.2036V30.0952H286.512L279.371 41.0449V41.2036C279.371 42.2046 279.936 42.7051 281.067 42.7051H281.568V45H269.117V42.7051H270.911C272.05 42.7051 272.62 42.2046 272.62 41.2036V26.0059C272.62 25.0049 272.05 24.5044 270.911 24.5044H269.117V22.1973ZM299.976 22.1973H322.327V31.2549H320.325C320.317 30.1725 320.044 29.1064 319.507 28.0566C318.97 27.0068 318.303 26.1483 317.505 25.481C316.708 24.8055 315.947 24.4637 315.223 24.4556H314.966C314.763 24.4556 314.637 24.48 314.588 24.5288C314.547 24.5776 314.527 24.7363 314.527 25.0049V41.2036C314.527 42.2046 315.092 42.7051 316.224 42.7051H318.018V45H304.273V42.7051H306.067C307.207 42.7051 307.776 42.2046 307.776 41.2036V25.0049C307.776 24.6387 307.642 24.4556 307.374 24.4556H307.068C306.352 24.5044 305.595 24.8584 304.798 25.5176C304 26.1768 303.333 27.0272 302.796 28.0688C302.259 29.1105 301.986 30.1725 301.978 31.2549H299.976V22.1973Z" fill="white"/>
<path fill-rule="evenodd" clip-rule="evenodd" d="M45 0C20.1472 0 0 20.1472 0 45C0 69.8528 20.1472 90 45 90C69.8528 90 90 69.8528 90 45C90 20.1472 69.8528 0 45 0ZM13.7923 55.034C14.4142 54.8578 14.0405 53.9923 13.0809 54.5228C12.4168 54.89 11.9212 55.5189 12.0104 56.2871C12.3075 58.8468 14.463 58.8502 16.3281 58.8531C16.4685 58.8533 16.6073 58.8535 16.7436 58.8548C16.6981 59.0838 16.682 59.378 16.6648 59.6931C16.636 60.2172 16.6042 60.799 16.4289 61.2339C16.1146 62.0141 15.5748 62.4095 15.3336 62.5862C15.303 62.6086 15.2772 62.6275 15.2573 62.6432C15.1189 62.7523 14.7973 63.7565 14.6212 64.3064C14.572 64.4601 14.5341 64.5782 14.5148 64.6315C14.4263 64.8757 14.6647 65.978 14.794 66.1593C14.9235 66.3408 15.5161 66.4106 15.5978 66.3339C15.6659 66.2699 15.6725 66.2592 15.6295 66.1726L15.5978 66.1105C15.5229 65.964 15.4479 65.8036 15.4071 65.5245C15.3662 65.2455 15.6114 64.3106 15.6864 64.1083C15.7305 63.9892 16.1735 63.8362 16.6528 63.6707C16.9877 63.5551 17.3402 63.4334 17.5868 63.3128C17.9073 63.1562 18.2161 62.9517 18.4362 62.806C18.6277 62.6792 18.7521 62.5968 18.7584 62.6293C18.7721 62.699 18.7175 63.8292 18.6766 64.0804C18.6358 64.3314 19.0854 64.75 19.5213 65.1268C19.7217 65.3 19.8329 65.482 19.9263 65.635C20.036 65.8147 20.1212 65.9542 20.2979 65.992C20.6248 66.0616 21.1016 65.992 21.2924 65.95C21.3664 65.9338 21.426 65.9533 21.4776 65.9702C21.5591 65.9968 21.6206 66.0169 21.6873 65.8802C21.7963 65.657 21.6057 65.4757 21.4422 65.364C21.389 65.3277 21.3099 65.287 21.2203 65.2408C21.0344 65.1452 20.8035 65.0263 20.6656 64.8757C20.6409 64.8487 20.614 64.8198 20.5859 64.7897C20.3816 64.5706 20.1137 64.2834 20.1616 64.1362C20.1812 64.076 20.2606 63.9708 20.3594 63.8399C20.5354 63.6067 20.773 63.292 20.8428 63.006C20.9517 62.5595 21.0063 62.2525 21.0063 62.2525C21.0063 62.2525 21.7568 62.3082 22.4107 62.4756C23.0647 62.6431 24.318 62.6291 24.318 62.6291C24.318 62.6291 24.1272 62.9639 23.9911 63.2151C23.9803 63.2349 23.9684 63.2566 23.9556 63.2798C23.8061 63.5507 23.5397 64.0336 23.6777 64.3034C23.8275 64.5965 24.4815 65.7823 24.8356 65.922C25.096 66.0246 25.3196 65.9989 25.501 65.9782C25.5663 65.9707 25.6262 65.9638 25.6803 65.9638C25.8846 65.9638 26.0073 65.908 25.8982 65.7127C25.8075 65.5499 25.6978 65.5034 25.5927 65.4682L25.5304 65.4475C25.5106 65.4408 25.4904 65.4347 25.4701 65.4286C25.3648 65.3971 25.2561 65.3646 25.1762 65.2243C25.0808 65.0568 24.9991 64.6243 24.9991 64.3593C24.9991 64.1766 25.3287 63.8219 25.6318 63.4957C25.7688 63.3483 25.9003 63.2067 25.9936 63.0894C26.2933 62.7128 26.3887 62.4896 26.3887 62.4896C26.3887 62.4896 26.4841 63.2987 26.5931 63.5918C26.7021 63.8848 27.4105 64.4709 27.8601 64.7918C28.1359 64.9886 28.2681 65.2117 28.3606 65.3676C28.4189 65.4659 28.4614 65.5375 28.514 65.5591C28.6502 65.615 29.0863 65.7057 29.2632 65.6499C29.4404 65.5941 29.5834 65.4825 29.42 65.3011C29.3125 65.1818 29.1756 65.0927 29.0576 65.0159C28.9961 64.9759 28.9398 64.9392 28.8955 64.9034C28.766 64.7987 27.9146 63.5709 27.8329 63.0407C27.7512 62.5104 27.7239 62.1896 27.7921 61.8686C27.8601 61.5477 27.9146 61.464 27.9146 61.464L27.9574 61.4217C28.0788 61.302 28.4274 60.9616 28.589 60.836C28.7866 60.6825 29.8356 60.515 30.0603 60.6476C30.106 60.6745 30.1444 60.7009 30.1789 60.7246C30.3144 60.8177 30.391 60.8704 30.619 60.7593C30.8545 60.6443 31.0624 60.4182 31.1665 60.305C31.1888 60.2807 31.2063 60.2617 31.2183 60.25C31.2569 60.2125 31.2703 60.2051 31.2852 60.197C31.2966 60.1907 31.3089 60.184 31.3342 60.1627C31.392 60.1138 31.4023 60.1034 31.3886 60.0442C31.3843 60.0253 31.3454 59.9528 31.2929 59.8551C31.18 59.6448 31.0044 59.3177 30.9765 59.1582C30.9642 59.0878 30.9606 59.0396 30.9576 59.0011C30.9509 58.9117 30.9481 58.875 30.8505 58.7361C30.7674 58.6177 30.5358 58.4177 30.3648 58.2701C30.2486 58.1698 30.1603 58.0936 30.1658 58.0837L30.1679 58.08C30.1898 58.0411 30.3192 57.812 30.3192 57.7313C30.3192 57.6477 29.7912 57.7873 29.7912 57.7873C29.7912 57.7873 29.8797 57.6687 29.8593 57.5012C29.8389 57.3338 29.7981 57.2396 29.7707 57.2361C29.7435 57.2326 29.3723 57.4942 29.2599 57.6268C29.1474 57.7594 29.0998 57.8116 29.0829 57.8151C29.0811 57.8155 29.07 57.8195 29.0507 57.8265C28.8783 57.8892 28.0572 58.1878 27.5363 58.1815C27.0767 58.176 26.3937 58.0693 25.8453 57.9836C25.703 57.9614 25.5699 57.9406 25.452 57.9233C25.2992 57.901 25.0342 57.8433 24.7021 57.771C23.7903 57.5727 22.3728 57.2643 21.3842 57.2746C20.0355 57.2885 18.7258 57.3422 18.5919 57.4011C17.9201 57.5701 15.2108 57.9264 14.2239 57.6665C12.8487 57.3042 12.4173 55.4235 13.7923 55.034ZM67.2473 60.8769L49.9648 19H41.0851L26.1626 55.3689C26.221 55.3296 26.2839 55.2863 26.3567 55.2361C26.392 55.2117 26.4297 55.1858 26.4703 55.1579C26.5884 55.0768 26.8003 54.9391 27.0496 54.7771C27.6784 54.3684 28.5453 53.805 28.7455 53.6051C29.0251 53.3259 29.5721 52.3821 29.7912 51.6304C30.0104 50.8788 30.5718 49.8354 30.7379 49.5586L30.7555 49.5293C30.9187 49.2578 31.1163 48.9289 31.1254 48.7179C31.1313 48.5802 31.2308 48.3715 31.3462 48.1295C31.4142 47.9869 31.4877 47.8327 31.5508 47.6748C31.6353 47.463 31.697 47.1802 31.7475 46.9481C31.7987 46.7132 31.8386 46.5302 31.8795 46.5252C31.961 46.5155 32.1724 46.9756 32.2812 47.2468C32.3899 47.518 32.6511 48.1048 32.695 48.1932C32.7351 48.2743 32.91 48.319 33.0616 48.3579C33.0754 48.3614 33.0891 48.3649 33.1024 48.3684C33.1794 48.3884 33.3229 48.4609 33.4799 48.5402C33.6476 48.6249 33.8306 48.7173 33.9646 48.762C34.2242 48.8487 34.288 48.9079 34.4025 49.0215C34.4535 49.0719 34.4961 49.1357 34.5417 49.204C34.5988 49.2895 34.6607 49.3821 34.7497 49.4651C34.9098 49.6144 35.3044 49.6969 35.6301 49.7619C35.8028 49.7963 36.0162 49.8782 36.2225 49.9573C36.4055 50.0275 36.5829 50.0955 36.7211 50.1263C37.015 50.1917 36.981 50.289 36.9226 50.4447C36.8642 50.6006 36.6879 50.8842 36.547 51.046C36.5134 51.0847 36.4843 51.1239 36.4546 51.164C36.3599 51.2917 36.2594 51.4273 35.9882 51.5762C35.6789 51.7462 35.4226 51.7536 35.1843 51.7605C35.1483 51.7615 35.1127 51.7626 35.0774 51.7641C34.9759 51.7687 34.862 51.7863 34.7424 51.8047C34.545 51.8352 34.3322 51.868 34.1349 51.8485C33.9119 51.8265 33.7844 51.8424 33.6516 51.859C33.5957 51.866 33.539 51.8731 33.4737 51.8775C33.3095 51.8887 33.2822 51.9287 33.2457 51.9821C33.2333 52.0003 33.2197 52.0202 33.1993 52.0409C33.119 52.1225 32.9464 52.5575 32.9079 53.1987C32.8956 53.4038 32.8754 53.6461 32.8548 53.8933C32.8111 54.4186 32.7655 54.9657 32.7899 55.2246C32.8135 55.4738 32.9265 55.8172 33.0595 56.2213C33.1299 56.435 33.2058 56.6657 33.2771 56.9084C33.4332 57.44 33.4069 57.8852 33.3865 58.2313C33.38 58.3421 33.374 58.4427 33.3749 58.5328C33.378 58.8771 33.2066 59.3366 33.0733 59.694C33.0628 59.7223 33.0525 59.7499 33.0425 59.7768C33.0213 59.8341 32.948 60.023 32.8395 60.3028C32.4101 61.4099 31.429 63.9395 30.9349 65.3661L39.7614 65.3636V63.9345C36.2164 63.8016 34.4437 62.6494 34.4437 60.478C34.4437 59.7246 34.5989 58.9492 34.9091 58.1515L37.302 52.0361H52.8895L56.0802 59.7136C56.2573 60.1345 56.346 60.5888 56.346 61.0763C56.346 62.8488 54.3297 63.8016 50.2971 63.9345V65.3636H72V63.9345H71.734C69.5848 63.9345 68.0893 62.9152 67.2473 60.8769ZM38.3323 49.3773L44.8465 32.5601L51.7928 49.3773H38.3323Z" fill="white"/>
</svg>
