<svg width="50" height="50" viewBox="0 0 50 50" fill="none" xmlns="http://www.w3.org/2000/svg">
<path d="M3.71171 32.8899C4.34358 32.5406 4.58963 33.1105 4.18012 33.2265C3.27479 33.483 3.55881 34.7213 4.46435 34.9598C5.11413 35.131 6.89811 34.8964 7.3404 34.7851C7.42862 34.7464 8.29099 34.711 9.17905 34.7018C10.0671 34.6926 11.4807 35.0739 11.8575 35.129C12.2343 35.1841 12.8487 35.2944 13.2299 35.2989C13.6112 35.3036 14.2369 35.06 14.2482 35.0577C14.2593 35.0554 14.2907 35.0211 14.3648 34.9337C14.4388 34.8464 14.6832 34.6742 14.7011 34.6765C14.7191 34.6788 14.746 34.7408 14.7594 34.851C14.7729 34.9613 14.7146 35.0394 14.7146 35.0394C14.7146 35.0394 15.0622 34.9475 15.0622 35.0026C15.0622 35.0577 14.9703 35.2185 14.9613 35.2346C14.9524 35.2507 15.3201 35.5332 15.4121 35.6641C15.504 35.795 15.4682 35.7881 15.495 35.9421C15.5219 36.0959 15.7574 36.4864 15.7664 36.5254C15.7754 36.5645 15.7686 36.5713 15.7305 36.6035C15.6924 36.6357 15.6992 36.6173 15.6543 36.661C15.6094 36.7046 15.4479 36.9044 15.2596 36.9963C15.0712 37.0881 15.0398 37.0101 14.8918 36.9227C14.7438 36.8355 14.0531 36.9457 13.923 37.0469C13.8166 37.1295 13.5871 37.3537 13.5071 37.4325L13.479 37.4603C13.479 37.4603 13.443 37.5155 13.3983 37.7268C13.3534 37.9381 13.3713 38.1493 13.4252 38.4985C13.479 38.8476 14.0396 39.6561 14.1248 39.725C14.21 39.7939 14.3625 39.8674 14.4702 39.9868C14.5778 40.1063 14.4836 40.1798 14.3669 40.2165C14.2504 40.2533 13.9633 40.1935 13.8736 40.1568C13.784 40.12 13.7391 39.8628 13.443 39.6515C13.147 39.4402 12.6806 39.0543 12.6088 38.8614C12.537 38.6684 12.4742 38.1356 12.4742 38.1356C12.4742 38.1356 12.4114 38.2826 12.2141 38.5306C12.0167 38.7787 11.5592 39.1921 11.5592 39.3667C11.5592 39.5412 11.6131 39.826 11.6759 39.9363C11.7386 40.0465 11.8284 40.0557 11.9091 40.0833L11.9501 40.0969C12.0193 40.1201 12.0915 40.1507 12.1513 40.2579C12.2231 40.3865 12.1423 40.4232 12.0078 40.4232C11.8733 40.4232 11.6848 40.4876 11.4516 40.3957C11.2184 40.3037 10.7878 39.5229 10.6892 39.3299C10.5905 39.137 10.8057 38.7787 10.8955 38.6133C10.9852 38.4479 11.1108 38.2275 11.1108 38.2275C11.1108 38.2275 10.2855 38.2367 9.85494 38.1264C9.42436 38.0162 8.93017 37.9795 8.93017 37.9795C8.93017 37.9795 8.89425 38.1817 8.82254 38.4756C8.75077 38.7696 8.40989 39.1096 8.37397 39.2198C8.33811 39.3301 8.57136 39.5597 8.70588 39.7067C8.8404 39.8537 9.10958 39.9548 9.21721 40.0283C9.32484 40.1018 9.45039 40.2212 9.37862 40.3682C9.30684 40.5152 9.2441 40.3866 9.11854 40.4141C8.99292 40.4417 8.67899 40.4876 8.46373 40.4418C8.24842 40.3957 8.23944 40.1201 7.9524 39.8721C7.66535 39.624 7.36933 39.3484 7.39622 39.1831C7.42312 39.0177 7.45905 38.2735 7.45007 38.2276C7.44109 38.1817 7.0733 38.4848 6.67861 38.6777C6.28393 38.8707 5.47665 39.0683 5.42729 39.2015C5.37793 39.3347 5.2165 39.9503 5.24339 40.134C5.27029 40.3177 5.31964 40.4234 5.369 40.5198L5.38986 40.5607C5.41818 40.6177 5.41383 40.6248 5.369 40.6669C5.31516 40.7174 4.92496 40.6714 4.83973 40.552C4.75455 40.4326 4.5976 39.7067 4.65589 39.546C4.71417 39.3852 5.02817 38.3286 5.14479 38.2368C5.26136 38.1448 5.683 37.8876 5.91619 37.3088C6.10098 36.8504 6.04372 36.144 6.12339 35.7423C4.84248 35.7301 3.21724 35.864 3.00685 34.0516C2.94811 33.5458 3.27446 33.1317 3.71171 32.8899ZM28.491 9.5L39.8706 37.0737C40.425 38.4159 41.4097 39.0871 42.8249 39.0871H43V40.028H28.7098V39.0871C31.3651 38.9995 32.6927 38.3721 32.6927 37.205C32.6927 36.884 32.6343 36.5849 32.5176 36.3078L30.4168 31.2526H20.1532L18.5776 35.2792C18.3733 35.8044 18.2711 36.315 18.2711 36.8111C18.2711 38.2408 19.4383 38.9995 21.7726 39.0871V40.028L15.4676 40.0296C15.8752 38.8529 16.786 36.5364 16.8554 36.3494C16.9449 36.1078 17.0765 35.7749 17.0742 35.5303C17.072 35.2856 17.1456 34.9227 17.0098 34.4607C16.8742 33.9987 16.7128 33.6029 16.6891 33.352C16.6655 33.1013 16.7415 32.4402 16.7668 32.018C16.7921 31.5959 16.8407 30.8472 16.8935 30.7934C16.9464 30.7397 16.9292 30.6957 17.0742 30.6858C17.2193 30.676 17.301 30.6461 17.5096 30.6667C17.7181 30.6874 17.953 30.6191 18.1302 30.6112C18.3073 30.6033 18.4954 30.6162 18.7299 30.4875C18.9644 30.3587 19.0051 30.245 19.0978 30.1383C19.1906 30.0318 19.3066 29.845 19.3451 29.7424C19.3836 29.6399 19.406 29.5758 19.2125 29.5328C19.019 29.4897 18.7087 29.3356 18.4941 29.2928C18.2797 29.25 18.0198 29.1957 17.9144 29.0974C17.8089 28.999 17.7612 28.88 17.6858 28.8053C17.6104 28.7305 17.5684 28.6915 17.3975 28.6345C17.2266 28.5774 16.9346 28.4025 16.8297 28.3752C16.7248 28.3479 16.5903 28.3182 16.5615 28.2599C16.5326 28.2017 16.3606 27.8153 16.289 27.6367C16.2174 27.4582 16.0782 27.1553 16.0245 27.1616C15.9709 27.1682 15.9201 27.638 15.8081 27.9186C15.696 28.1991 15.5342 28.4613 15.5279 28.6054C15.5217 28.7494 15.3822 28.9767 15.2728 29.159C15.1635 29.3412 14.7938 30.0282 14.6495 30.5231C14.5052 31.0181 14.2102 32.1018 14.0261 32.2856C13.8419 32.4694 12.8019 33.12 12.528 33.3081C12.446 33.3643 12.3824 33.4086 12.3253 33.447L22.151 9.5H28.491ZM25.1208 18.4286L20.8316 29.5019H29.6946L25.1208 18.4286Z" fill="#59443F"/>
</svg>
