<svg width="40" height="40" viewBox="0 0 40 40" fill="none" xmlns="http://www.w3.org/2000/svg">
<path fill-rule="evenodd" clip-rule="evenodd" d="M20 0C8.95599 0 0 8.95599 0 20C0 31.044 8.95599 40 20 40C31.044 40 40 31.044 40 20C40 8.95599 31.044 0 20 0ZM32.4969 20.0204C32.4969 20.0204 32.4969 24.0765 31.9824 26.0324C31.694 27.103 30.8499 27.9471 29.7793 28.2352C27.8234 28.75 19.9999 28.75 19.9999 28.75C19.9999 28.75 12.1969 28.75 10.2206 28.2147C9.15002 27.9266 8.30591 27.0822 8.01752 26.0117C7.50269 24.0765 7.50269 20 7.50269 20C7.50269 20 7.50269 15.9442 8.01752 13.9883C8.3056 12.9178 9.17047 12.0529 10.2206 11.7648C12.1765 11.25 19.9999 11.25 19.9999 11.25C19.9999 11.25 27.8234 11.25 29.7793 11.7853C30.8499 12.0734 31.694 12.9178 31.9824 13.9883C32.5176 15.9442 32.4969 20.0204 32.4969 20.0204ZM24.0145 19.9999L17.5088 23.7468V16.2529L24.0145 19.9999Z" fill="white"/>
</svg>
